<svg id="מבנה_נטוש" data-name="מבנה נטוש" xmlns="http://www.w3.org/2000/svg" width="39.27" height="39.27" viewBox="0 0 39.27 39.27">
  <path id="Path_928" data-name="Path 928" d="M180.67,436.99h11.556v5.753H180.67Z" transform="translate(-166.813 -403.473)" fill="#448ecd"/>
  <path id="Path_929" data-name="Path 929" d="M0,436.99H11.556v5.753H0Z" transform="translate(0 -403.473)" fill="#448ecd"/>
  <path id="Path_930" data-name="Path 930" d="M361.33,436.99h11.556v5.753H361.33Z" transform="translate(-333.616 -403.473)" fill="#448ecd"/>
  <path id="Path_931" data-name="Path 931" d="M0,227.33H11.556v5.739H0Z" transform="translate(0 -209.894)" fill="#448ecd"/>
  <path id="Path_932" data-name="Path 932" d="M183.254,227.33H180.67v5.739h11.556V229.9h-5.051Z" transform="translate(-166.813 -209.894)" fill="#448ecd"/>
  <path id="Path_933" data-name="Path 933" d="M0,332.15H4.627v5.74H0Z" transform="translate(0 -306.674)" fill="#448ecd"/>
  <path id="Path_934" data-name="Path 934" d="M90.33,332.15h11.556v5.74H90.33Z" transform="translate(-83.402 -306.674)" fill="#448ecd"/>
  <path id="Path_935" data-name="Path 935" d="M271,332.15h11.556v5.74H271Z" transform="translate(-250.215 -306.674)" fill="#448ecd"/>
  <path id="Path_936" data-name="Path 936" d="M0,122.5H4.627v5.739H0Z" transform="translate(0 -113.104)" fill="#448ecd"/>
  <path id="Path_937" data-name="Path 937" d="M95.291,122.5H90.33v5.739h7.958Z" transform="translate(-83.402 -113.104)" fill="#448ecd"/>
  <path id="Path_938" data-name="Path 938" d="M322.35,69.962l-2.214-1.443V65.47h-2.3v3.076L312.381,72.4v-2.1h-2.3v4.825l2.967,2.772,2.125-1.165-2.123-1.983,5.962-4.211,1.846,1.2v1.874l.491-.269,1.81.726v-1.8h2.409v-2.3Z" transform="translate(-286.297 -60.448)" fill="#448ecd"/>
  <path id="Path_939" data-name="Path 939" d="M3.081,7.754h2.3V5.982h4.04V7.754h2.3V5.982h.817l5.1,4.162-1.731,1.882,1.13,2.17,3.389-3.683V6.02h-2.3V7.571L13.664,3.93V0h-2.3V3.681H7.324V0h-2.3V3.676L0,3.681v2.3H3.081Z" fill="#448ecd"/>
  <path id="Path_940" data-name="Path 940" d="M451.67,332.15H456.3v5.74H451.67Z" transform="translate(-417.027 -306.674)" fill="#448ecd"/>
  <path id="Path_941" data-name="Path 941" d="M368.82,201.2l-.643.353-6.846,3.754v3.636h11.556v-6.111l-2.409-.966Z" transform="translate(-333.616 -185.768)" fill="#448ecd"/>
</svg>
