<svg xmlns="http://www.w3.org/2000/svg" width="33.259" height="33.259" viewBox="0 0 33.259 33.259">
  <path id="Icon_ionic-md-alarm" data-name="Icon ionic-md-alarm" d="M36.212,9.39l-7.65-6.355L26.4,5.594l7.65,6.354ZM12.681,5.511,10.519,2.953,2.953,9.39l2.161,2.558ZM20.414,13.1H17.92v9.9l7.9,4.7,1.247-2.063-6.652-3.879V13.1Zm-.832-6.6A14.856,14.856,0,1,0,34.549,21.357,14.9,14.9,0,0,0,19.583,6.5Zm0,26.409A11.554,11.554,0,1,1,31.223,21.357,11.631,11.631,0,0,1,19.583,32.911Z" transform="translate(-2.953 -2.953)" fill="#37c56b"/>
</svg>
