<svg id="כדורסל" xmlns="http://www.w3.org/2000/svg" width="52.221" height="52.221" viewBox="0 0 52.221 52.221">
  <path id="Path_982" data-name="Path 982" d="M271.337,273.01a23.742,23.742,0,0,1-3.23-2.7,23.3,23.3,0,0,1-6.849-15.527H254.78v25.044A26.031,26.031,0,0,0,271.337,273.01Z" transform="translate(-227.603 -227.603)" fill="#448ecd"/>
  <path id="Path_983" data-name="Path 983" d="M335.53,254.78a21.34,21.34,0,0,0,9.494,16.688,26.033,26.033,0,0,0,6.936-16.688Z" transform="translate(-299.739 -227.603)" fill="#448ecd"/>
  <path id="Path_984" data-name="Path 984" d="M254.78,25.044h6.478a23.3,23.3,0,0,1,6.849-15.527,23.74,23.74,0,0,1,3.23-2.7A26.031,26.031,0,0,0,254.78,0Z" transform="translate(-227.603)" fill="#448ecd"/>
  <path id="Path_985" data-name="Path 985" d="M335.53,95.018h16.43a26.033,26.033,0,0,0-6.936-16.688A21.339,21.339,0,0,0,335.53,95.018Z" transform="translate(-299.739 -69.975)" fill="#448ecd"/>
  <path id="Path_986" data-name="Path 986" d="M79.563,6.814a23.747,23.747,0,0,1,3.23,2.7,23.3,23.3,0,0,1,6.849,15.527H96.12V0A26.032,26.032,0,0,0,79.563,6.814Z" transform="translate(-71.076)" fill="#448ecd"/>
  <path id="Path_987" data-name="Path 987" d="M96.119,254.78H89.641a23.3,23.3,0,0,1-6.849,15.527,23.738,23.738,0,0,1-3.23,2.7,26.032,26.032,0,0,0,16.557,6.814Z" transform="translate(-71.075 -227.603)" fill="#448ecd"/>
  <path id="Path_988" data-name="Path 988" d="M16.43,95.018A21.34,21.34,0,0,0,6.936,78.33,26.033,26.033,0,0,0,0,95.018Z" transform="translate(0 -69.975)" fill="#448ecd"/>
  <path id="Path_989" data-name="Path 989" d="M16.43,254.78H0a26.033,26.033,0,0,0,6.936,16.688A21.339,21.339,0,0,0,16.43,254.78Z" transform="translate(0 -227.603)" fill="#448ecd"/>
</svg>
