<svg xmlns="http://www.w3.org/2000/svg" width="42.443" height="38.695" viewBox="0 0 42.443 38.695">
  <g id="Group_1173" data-name="Group 1173" transform="translate(-1735.943 -629.876)">
    <g id="finish-flag_1_" data-name="finish-flag(1)" transform="matrix(0.946, -0.326, 0.326, 0.946, 1735.943, 635.044)">
      <path id="Path_736" data-name="Path 736" d="M4.223.173c.242,0,.482.009.723.014l-1.1,3.372C3.423,3.544,3,3.535,2.579,3.529,1.72,3.516.872,3.493,0,3.4L1.106,0A28.644,28.644,0,0,0,4.223.173Z" transform="translate(14.721 8.74)" fill="#37c56b"/>
      <path id="Path_737" data-name="Path 737" d="M3.688.174c.464.007.862.059,1.293.088L3.851,3.739c-.435-.015-.865-.025-1.292-.031C1.707,3.7.865,3.673,0,3.586L1.165,0A22.834,22.834,0,0,0,3.688.174Z" transform="translate(16.414 3.351)" fill="#37c56b"/>
      <path id="Path_738" data-name="Path 738" d="M0,3.493,1.135,0A14.106,14.106,0,0,0,4.622,1.276L3.448,4.886A13.974,13.974,0,0,1,0,3.493Z" transform="translate(11.114 1.745)" fill="#37c56b"/>
      <path id="Path_739" data-name="Path 739" d="M4.712.912,3.6,4.347A14.481,14.481,0,0,0,0,3.407L1.107,0A12.815,12.815,0,0,1,4.712.912Z" transform="translate(20.474 9.043)" fill="#37c56b"/>
      <path id="Path_740" data-name="Path 740" d="M3.234,5.467A27.928,27.928,0,0,0,0,3.413L1.109,0A36.1,36.1,0,0,1,4.324,2.112Z" transform="translate(25.763 10.769)" fill="#37c56b"/>
      <path id="Path_741" data-name="Path 741" d="M0,3.412,1.109,0A15.645,15.645,0,0,0,4.564,1.372L3.447,4.809A13.985,13.985,0,0,1,0,3.412Z" transform="translate(9.424 7.027)" fill="#37c56b"/>
      <path id="Path_742" data-name="Path 742" d="M1.147,0A28.526,28.526,0,0,0,4.283.176c.235,0,.469.009.7.014L3.837,3.725c-.227-.005-.454-.011-.683-.014A28.52,28.52,0,0,1,0,3.528Z" transform="translate(12.989 13.948)" fill="#37c56b"/>
      <path id="Path_743" data-name="Path 743" d="M0,3.54,1.15,0A15.674,15.674,0,0,0,4.6,1.375L3.462,4.891A13.028,13.028,0,0,1,0,3.54Z" transform="translate(7.693 12.228)" fill="#37c56b"/>
      <path id="Path_744" data-name="Path 744" d="M4.754.907,3.608,4.435A12.884,12.884,0,0,0,0,3.533L1.148,0A12.873,12.873,0,0,1,4.754.907Z" transform="translate(18.74 14.253)" fill="#37c56b"/>
      <path id="Path_745" data-name="Path 745" d="M4.362,2.108,3.6,4.438a.928.928,0,0,1-1.413.478A21.993,21.993,0,0,0,0,3.526L1.146,0A35.222,35.222,0,0,1,4.362,2.108Z" transform="translate(24.036 15.972)" fill="#37c56b"/>
      <path id="Path_746" data-name="Path 746" d="M4.729.887,3.594,4.382A14.49,14.49,0,0,0,0,3.436L1.117,0A19.128,19.128,0,0,1,4.729.887Z" transform="translate(22.166 3.805)" fill="#37c56b"/>
      <path id="Path_747" data-name="Path 747" d="M3.233,5.6A28.3,28.3,0,0,0,0,3.546L1.152,0A23.514,23.514,0,0,1,3.81,1.669a.928.928,0,0,1,.353,1.044Z" transform="translate(27.453 5.436)" fill="#37c56b"/>
      <path id="Path_748" data-name="Path 748" d="M.641,28.337a.928.928,0,0,1-.6-1.169L8.706.641a.928.928,0,0,1,1.764.573L1.81,27.741a.928.928,0,0,1-1.169.6Z" transform="translate(0 0)" fill="#37c56b"/>
    </g>
    <path id="bus_1_" data-name="bus(1)" d="M33.3-4.688,31.572-8.464a3.825,3.825,0,0,0-3.467-2.2H3.316A3.3,3.3,0,0,0,0-7.384V.822a1.809,1.809,0,0,0,1.817,1.8H4.529a2.8,2.8,0,0,0,5.48,0H23.542a2.8,2.8,0,0,0,5.48,0H32a1.555,1.555,0,0,0,1.493-1.107,1.579,1.579,0,0,0,.061-.432V-3.541A2.746,2.746,0,0,0,33.3-4.688ZM2.8-4.023a.556.556,0,0,1-.559-.554v-4.43A.557.557,0,0,1,2.8-9.561H6.71a.557.557,0,0,1,.559.554v4.43a.556.556,0,0,1-.559.554ZM7.27,3.729A1.661,1.661,0,1,1,8.947,2.068,1.669,1.669,0,0,1,7.27,3.729Zm6.151-8.306a.556.556,0,0,1-.559.554H8.947a.556.556,0,0,1-.559-.554v-4.43a.557.557,0,0,1,.559-.554h3.914a.557.557,0,0,1,.559.554Zm6.151,0a.556.556,0,0,1-.559.554H15.1a.556.556,0,0,1-.559-.554v-4.43a.557.557,0,0,1,.559-.554h3.914a.557.557,0,0,1,.559.554Zm1.678.554a.556.556,0,0,1-.559-.554v-4.43a.557.557,0,0,1,.559-.554h3.914a.557.557,0,0,1,.559.554v4.43a.556.556,0,0,1-.559.554Zm5.033,7.752A1.661,1.661,0,1,1,27.96,2.068,1.669,1.669,0,0,1,26.282,3.729Zm1.074-7.752a.561.561,0,0,1-.514-.554V-9.012a.552.552,0,0,1,.554-.549h.709A2.708,2.708,0,0,1,30.555-8l1.728,3.776a1.6,1.6,0,0,1,.145.626Zm0,0" transform="translate(1744.834 663.731)" fill="#37c56b"/>
  </g>
</svg>
