<svg xmlns="http://www.w3.org/2000/svg" width="20.848" height="24.803" viewBox="0 0 20.848 24.803"><defs><style>.a{fill:#fc1f9d;}</style></defs><path class="a" d="M21.326,12.417H5.432a.861.861,0,0,1-.844-.851,1.106,1.106,0,0,1,.029-.229L5.463,5.43c.072-.384.417-.459.831-.459H20.467c.411,0,.759.069.83.451l.846,6.014a.878.878,0,0,1,.03.187A.815.815,0,0,1,21.326,12.417Zm-.636,6.624a1.579,1.579,0,1,1,1.616-1.582A1.6,1.6,0,0,1,20.691,19.041Zm-14.644,0a1.58,1.58,0,1,1,1.622-1.582A1.6,1.6,0,0,1,6.047,19.041ZM8.837,1.5h9.928V2.985H8.837A.745.745,0,1,1,8.837,1.5Zm14,2.278c-.29-1.4-1.137-1.959-2.518-2.521A22.871,22.871,0,0,0,13.339.023,23.034,23.034,0,0,0,6.333,1.254c-1.381.562-2.214,1.124-2.5,2.521L2.88,11.547v10.8H4.369v.993c0,1.986,2.482,1.986,2.482,0v-.993H19.26v.993a1.489,1.489,0,1,0,2.978,0v-.993h1.489v-10.8l-.892-7.773Z" transform="translate(-2.88 -0.023)"/></svg>