<svg id="כיתה" xmlns="http://www.w3.org/2000/svg" width="46.789" height="41.185" viewBox="0 0 46.789 41.185">
  <path id="Path_425" data-name="Path 425" d="M22,16a32.986,32.986,0,0,0,.593-3.728C22.7,9.859,22.84,1.908,15.9,1.908a6.106,6.106,0,0,0-1.96.256c-.372.167-.439.545-.679.627s-.605.051-.827.157C9,4.6,9.116,8.641,9.116,8.641l.507,8.29-.676,6.493H0v4.336H2.8V43.093H31.79V27.759h2.8V23.425H22.818ZM10.538,7.845a3.633,3.633,0,0,0,3.393-2.988c1.935,1.6,4.68,1.682,6.967,1.888.282.132.494.708.554,1.469l-1.2.187V7.552H16.443v.883h-.67V7.552H11.967v.827l-1.47-.21C10.509,8.061,10.525,7.954,10.538,7.845Zm9.291.131V9.483h-2.96V7.976Zm-4.479,0V9.483H12.393V7.976ZM12.687,23.425H11.224l.476-3.68c.524,1.774,1.022,3.412,1.022,3.412Zm6.7,0-.06-.407s.285-1.877.626-3.856l.588,4.263Zm-1.923-9.705v1.949h.009l.7.333-1.917,3.449v3.975h-.473V19.6L13.818,15.88l.551-.14V13.653a5.518,5.518,0,0,1-3.854-4.842l1.453.209v.886h3.806V9.28h.67v.627H20.25V9.042l1.21-.187C21.392,10.771,20.4,13.336,17.462,13.719Z" transform="translate(0 -1.908)" fill="#448ecd"/>
  <path id="Path_426" data-name="Path 426" d="M17.855,3.874V17.53H38.417V3.874Zm19.617,12.71H18.8V4.821H37.472Z" transform="translate(8.372 -0.986)" fill="#448ecd"/>
  <path id="Path_427" data-name="Path 427" d="M22.967,9.883H21.153V9.462h1.6V8.654h-1.6V8.232h1.763V7.364H20.109v3.389h2.858Z" transform="translate(9.429 0.65)" fill="#448ecd"/>
  <rect id="Rectangle_199" data-name="Rectangle 199" width="2.399" height="0.726" transform="translate(32.836 10.412)" fill="#448ecd"/>
  <rect id="Rectangle_200" data-name="Rectangle 200" width="2.399" height="0.724" transform="translate(32.836 9.267)" fill="#448ecd"/>
  <path id="Path_428" data-name="Path 428" d="M25.251,9.143a.665.665,0,0,1,.066-.317.263.263,0,0,1,.251-.123.33.33,0,0,1,.167.035.288.288,0,0,1,.091.1.342.342,0,0,1,.04.142,1.518,1.518,0,0,1,.007.166v1.334h.94V9.143a.647.647,0,0,1,.069-.317.26.26,0,0,1,.25-.123.317.317,0,0,1,.166.035.274.274,0,0,1,.1.1.392.392,0,0,1,.038.142c0,.053.006.109.006.166v1.334h.942V8.787a1.221,1.221,0,0,0-.04-.3.728.728,0,0,0-.145-.272.692.692,0,0,0-.261-.2.931.931,0,0,0-.4-.073,1.205,1.205,0,0,0-.386.056,1.157,1.157,0,0,0-.25.126.756.756,0,0,0-.138.134.612.612,0,0,1-.06.071.614.614,0,0,0-.276-.283.813.813,0,0,0-.389-.1,1.172,1.172,0,0,0-.46.088.786.786,0,0,0-.348.3h-.009V8.013h-.906v2.463h.943l0-1.334Z" transform="translate(11.4 0.925)" fill="#448ecd"/>
  <path id="Path_429" data-name="Path 429" d="M27.749,10.2a1.242,1.242,0,0,0,.439.25,1.785,1.785,0,0,0,.952.038,1.346,1.346,0,0,0,.367-.142,1.126,1.126,0,0,0,.3-.242A1.048,1.048,0,0,0,30,9.76h-.875a.324.324,0,0,1-.169.134.608.608,0,0,1-.223.043.426.426,0,0,1-.344-.132.574.574,0,0,1-.14-.347h1.805a2.469,2.469,0,0,0-.081-.64,1.246,1.246,0,0,0-.256-.472,1.046,1.046,0,0,0-.436-.292,1.776,1.776,0,0,0-.635-.1,1.319,1.319,0,0,0-.53.1,1.175,1.175,0,0,0-.41.279,1.266,1.266,0,0,0-.264.413,1.337,1.337,0,0,0-.091.505,1.353,1.353,0,0,0,.1.549A1.224,1.224,0,0,0,27.749,10.2Zm.66-1.542a.488.488,0,0,1,.335-.107.4.4,0,0,1,.3.12.415.415,0,0,1,.115.294H28.26A.507.507,0,0,1,28.408,8.661Z" transform="translate(12.827 0.927)" fill="#448ecd"/>
  <path id="Path_430" data-name="Path 430" d="M30.661,8.439h-.754c.079-.047.159-.094.247-.14a1.63,1.63,0,0,0,.238-.15.776.776,0,0,0,.175-.192.5.5,0,0,0,.069-.272.566.566,0,0,0-.046-.231.5.5,0,0,0-.138-.165.688.688,0,0,0-.216-.1,1.1,1.1,0,0,0-.276-.032.949.949,0,0,0-.3.048.592.592,0,0,0-.367.366.82.82,0,0,0-.034.308h.452a.486.486,0,0,1,.05-.25.216.216,0,0,1,.2-.094.228.228,0,0,1,.144.046.194.194,0,0,1,.057.159.153.153,0,0,1-.023.081.343.343,0,0,1-.057.066c-.025.018-.046.035-.073.051s-.05.031-.072.044c-.053.032-.109.063-.162.1s-.112.066-.163.1-.1.075-.147.116a1.285,1.285,0,0,0-.12.134.718.718,0,0,0-.094.187.623.623,0,0,0-.024.225h1.441V8.439Z" transform="translate(13.703 0.555)" fill="#448ecd"/>
</svg>
