<svg id="מסחרי" xmlns="http://www.w3.org/2000/svg" width="34.428" height="34.428" viewBox="0 0 34.428 34.428">
  <g id="Group_1443" data-name="Group 1443" transform="translate(0 16.273)">
    <g id="Group_1442" data-name="Group 1442">
      <path id="Path_955" data-name="Path 955" d="M23.333,242H1.009A1.008,1.008,0,0,0,0,243.009V257.13a3.029,3.029,0,0,0,3.026,3.026h18.29a3.029,3.029,0,0,0,3.026-3.026V243.009A1.008,1.008,0,0,0,23.333,242Zm-5.178,6.052a6.052,6.052,0,0,1-12.1,0v-1.009a1.009,1.009,0,1,1,2.017,0v1.009a4.035,4.035,0,0,0,8.069,0v-1.009a1.009,1.009,0,1,1,2.017,0Z" transform="translate(0 -242)" fill="#448ecd"/>
    </g>
  </g>
  <g id="Group_1445" data-name="Group 1445" transform="translate(9.952)">
    <g id="Group_1444" data-name="Group 1444">
      <path id="Path_956" data-name="Path 956" d="M171.468,8.2H166.29V6.052a6.052,6.052,0,0,0-12.1,0V8.2h-5.178A1.008,1.008,0,0,0,148,9.212v5.043h13.381a3.029,3.029,0,0,1,3.026,3.026V31.4a5,5,0,0,1-1.034,3.026h6.078a3.029,3.029,0,0,0,3.026-3.026V9.212A1.008,1.008,0,0,0,171.468,8.2Zm-7.195,0H156.2V6.052a4.035,4.035,0,0,1,8.069,0Z" transform="translate(-148)" fill="#448ecd"/>
    </g>
  </g>
</svg>
