<svg xmlns="http://www.w3.org/2000/svg" width="42.583" height="26.391" viewBox="0 0 42.583 26.391">
  <g id="מכולה" transform="translate(0 -5.063)">
    <path id="Path_942" data-name="Path 942" d="M9.759,5.177.981,7.571A1.333,1.333,0,0,0,0,8.855v18.63A1.333,1.333,0,0,0,.981,28.77l8.778,2.394Z" transform="translate(0 0.088)" fill="#448ecd"/>
    <path id="Path_943" data-name="Path 943" d="M35.95,7.618,7,5.063V31.454L35.95,28.9a1.33,1.33,0,0,0,1.214-1.325V8.943A1.33,1.33,0,0,0,35.95,7.618ZM13.21,24.912a1.331,1.331,0,0,1-2.661,0V11.6a1.331,1.331,0,0,1,2.661,0Zm7.1-.887a1.331,1.331,0,1,1-2.661,0V12.492a1.331,1.331,0,1,1,2.661,0Zm7.1-.887a1.331,1.331,0,0,1-2.661,0V13.379a1.331,1.331,0,0,1,2.661,0Zm6.21-.444a1.331,1.331,0,0,1-2.661,0V14.266a1.331,1.331,0,0,1,2.661,0Z" transform="translate(5.42)" fill="#448ecd"/>
  </g>
</svg>
