<svg xmlns="http://www.w3.org/2000/svg" width="34.476" height="34.321" viewBox="0 0 34.476 34.321">
  <g id="חדר_אוכל" data-name="חדר אוכל" transform="translate(0 -1.104)">
    <path id="XMLID_98_" d="M12.983,303.327q-.22.019-.439.019a5.188,5.188,0,0,1-1.172-.146L2.541,312.03a1.109,1.109,0,0,0,0,1.569l2.286,2.286a1.109,1.109,0,0,0,1.568,0l10.614-10.612-1.967-2.122Z" transform="translate(-2.059 -280.785)" fill="#448ecd"/>
    <path id="XMLID_97_" d="M265.554,8.393a1.06,1.06,0,0,0-1.5,0l-5.723,5.723a1.385,1.385,0,1,1-1.96-1.957l5.695-5.694a1.1,1.1,0,0,0-1.56-1.56L254.813,10.6a1.385,1.385,0,0,1-1.959-1.957l5.722-5.722a1.062,1.062,0,0,0-1.5-1.5l-6.438,6.438a5.95,5.95,0,0,0-1.536,5.7l4.316,4.316a5.951,5.951,0,0,0,5.7-1.537L265.554,9.9A1.061,1.061,0,0,0,265.554,8.393Z" transform="translate(-231.389)" fill="#448ecd"/>
    <path id="XMLID_96_" d="M2.893,9.279a1.168,1.168,0,0,0-.825-.342,1.184,1.184,0,0,0-.195.016,1.167,1.167,0,0,0-.857.643A10.173,10.173,0,0,0,2.98,21.219L8.456,26.7a2.866,2.866,0,0,0,2.029.84q.122,0,.243-.01l3.18-.271L27.773,42.212a1.169,1.169,0,0,0,.834.374h.02a1.175,1.175,0,0,0,.829-.342l2.375-2.375a1.169,1.169,0,0,0,0-1.652Z" transform="translate(0 -7.282)" fill="#448ecd"/>
  </g>
</svg>
