<svg xmlns="http://www.w3.org/2000/svg" width="33.734" height="32.004" viewBox="0 0 33.734 32.004"><defs><style>.a{fill:#37c56b;}</style></defs><g transform="matrix(0.946, -0.326, 0.326, 0.946, 0, 5.168)"><path class="a" d="M4.223.173c.242,0,.482.009.723.014l-1.1,3.372C3.423,3.544,3,3.535,2.579,3.529,1.72,3.516.872,3.493,0,3.4L1.106,0A28.644,28.644,0,0,0,4.223.173Z" transform="translate(14.721 8.74)"/><path class="a" d="M3.688.174c.464.007.862.059,1.293.088L3.851,3.739c-.435-.015-.865-.025-1.292-.031C1.707,3.7.865,3.673,0,3.586L1.165,0A22.834,22.834,0,0,0,3.688.174Z" transform="translate(16.414 3.351)"/><path class="a" d="M0,3.493,1.135,0A14.106,14.106,0,0,0,4.622,1.276L3.448,4.886A13.974,13.974,0,0,1,0,3.493Z" transform="translate(11.114 1.745)"/><path class="a" d="M4.712.912,3.6,4.347A14.481,14.481,0,0,0,0,3.407L1.107,0A12.815,12.815,0,0,1,4.712.912Z" transform="translate(20.474 9.043)"/><path class="a" d="M3.234,5.467A27.928,27.928,0,0,0,0,3.413L1.109,0A36.1,36.1,0,0,1,4.324,2.112Z" transform="translate(25.763 10.769)"/><path class="a" d="M0,3.412,1.109,0A15.645,15.645,0,0,0,4.564,1.372L3.447,4.809A13.985,13.985,0,0,1,0,3.412Z" transform="translate(9.424 7.027)"/><path class="a" d="M1.147,0A28.526,28.526,0,0,0,4.283.176c.235,0,.469.009.7.014L3.837,3.725c-.227-.005-.454-.011-.683-.014A28.52,28.52,0,0,1,0,3.528Z" transform="translate(12.989 13.948)"/><path class="a" d="M0,3.54,1.15,0A15.674,15.674,0,0,0,4.6,1.375L3.462,4.891A13.028,13.028,0,0,1,0,3.54Z" transform="translate(7.693 12.228)"/><path class="a" d="M4.754.907,3.608,4.435A12.884,12.884,0,0,0,0,3.533L1.148,0A12.873,12.873,0,0,1,4.754.907Z" transform="translate(18.74 14.253)"/><path class="a" d="M4.362,2.108,3.6,4.438a.928.928,0,0,1-1.413.478A21.993,21.993,0,0,0,0,3.526L1.146,0A35.222,35.222,0,0,1,4.362,2.108Z" transform="translate(24.036 15.972)"/><path class="a" d="M4.729.887,3.594,4.382A14.49,14.49,0,0,0,0,3.436L1.117,0A19.128,19.128,0,0,1,4.729.887Z" transform="translate(22.166 3.805)"/><path class="a" d="M3.233,5.6A28.3,28.3,0,0,0,0,3.546L1.152,0A23.514,23.514,0,0,1,3.81,1.669a.928.928,0,0,1,.353,1.044Z" transform="translate(27.453 5.436)"/><path class="a" d="M.641,28.337a.928.928,0,0,1-.6-1.169L8.706.641a.928.928,0,0,1,1.764.573L1.81,27.741a.928.928,0,0,1-1.169.6Z" transform="translate(0 0)"/></g></svg>