<svg id="fruits" xmlns="http://www.w3.org/2000/svg" width="43.142" height="43.057" viewBox="0 0 43.142 43.057">
  <path id="Path_713" data-name="Path 713" d="M240.222,86.929l-.027.025q.053.232.089.467a13.038,13.038,0,0,1,3.552-.616,8.212,8.212,0,0,0-6.776-5.256,13.026,13.026,0,0,1,3.119,5.334Z" transform="translate(-217.3 -76.892)" fill="#37c56b"/>
  <path id="Path_714" data-name="Path 714" d="M194.409,227.108a11.464,11.464,0,0,0-.673,2.364l1.555-1.51Z" transform="translate(-178.151 -208.423)" fill="#37c56b"/>
  <path id="Path_715" data-name="Path 715" d="M212.66,177.958l-1.526-1.482a11.651,11.651,0,0,0-3.021,3.423l1.276,1.236Z" transform="translate(-191.142 -162.67)" fill="#37c56b"/>
  <path id="Path_716" data-name="Path 716" d="M209.863,124.126c-.01-.119-.024-.239-.043-.359a8.613,8.613,0,0,0-4.784-2.238,15.068,15.068,0,0,1,2.629,3.887A13.123,13.123,0,0,1,209.863,124.126Z" transform="translate(-188.362 -113.018)" fill="#37c56b"/>
  <path id="Path_717" data-name="Path 717" d="M290.426,40.644a9.371,9.371,0,0,1,2.3-2.432c-.058-.9-.39-3.757-2.3-5-1.909,1.244-2.243,4.094-2.3,5a9.37,9.37,0,0,1,1.082.931A9.536,9.536,0,0,1,290.426,40.644Z" transform="translate(-263.446 -33.211)" fill="#37c56b"/>
  <path id="Path_718" data-name="Path 718" d="M321.2,86.844a13.006,13.006,0,0,1,2.793.569,12.313,12.313,0,0,1,3.225-5.873,8.2,8.2,0,0,0-6.371,4.365C320.99,86.246,321.106,86.563,321.2,86.844Z" transform="translate(-293.009 -76.883)" fill="#37c56b"/>
  <path id="Path_719" data-name="Path 719" d="M245.075,344.261a15.93,15.93,0,0,1-10.542,4.074,15.671,15.671,0,0,1-6.659-1.513q-.248.528-.533,1.038c-.069.124-.142.245-.216.363a17.585,17.585,0,0,0,19.427-3.06A14.236,14.236,0,0,0,251.465,336h-1.63A14.136,14.136,0,0,1,245.075,344.261Z" transform="translate(-208.322 -306.821)" fill="#37c56b"/>
  <path id="Path_720" data-name="Path 720" d="M368.871,124.13a13.122,13.122,0,0,1,2.2,1.289,15.065,15.065,0,0,1,2.629-3.886,8.629,8.629,0,0,0-4.784,2.236C368.9,123.89,368.881,124.01,368.871,124.13Z" transform="translate(-336.409 -113.022)" fill="#37c56b"/>
  <path id="Path_721" data-name="Path 721" d="M278.268,162.139l3.261,3.165,3.262-3.168-3.26-3.166Z" transform="translate(-254.537 -146.851)" fill="#37c56b"/>
  <path id="Path_722" data-name="Path 722" d="M236.116,209.339l3.266-3.172L236.121,203l-3.27,3.176Z" transform="translate(-213.497 -186.64)" fill="#37c56b"/>
  <path id="Path_723" data-name="Path 723" d="M329.188,153.236l2.722,2.644,1.3-1.267A11.482,11.482,0,0,0,329.188,153.236Z" transform="translate(-300.55 -141.669)" fill="#37c56b"/>
  <path id="Path_724" data-name="Path 724" d="M254.458,155.85l2.73-2.65a11.478,11.478,0,0,0-4.044,1.375Z" transform="translate(-231.833 -141.637)" fill="#37c56b"/>
  <path id="Path_725" data-name="Path 725" d="M370.437,176.555l-1.515,1.471,3.275,3.18,1.26-1.222A11.654,11.654,0,0,0,370.437,176.555Z" transform="translate(-336.455 -162.741)" fill="#37c56b"/>
  <path id="Path_726" data-name="Path 726" d="M326.85,202.974l-3.262,3.168,3.272,3.177,3.264-3.165Z" transform="translate(-295.489 -186.614)" fill="#37c56b"/>
  <path id="Path_727" data-name="Path 727" d="M330.613,291.106l-2.871,2.784h5.74Z" transform="translate(-299.243 -266.253)" fill="#37c56b"/>
  <path id="Path_728" data-name="Path 728" d="M415.915,229.6a11.458,11.458,0,0,0-.661-2.319l-.864.838Z" transform="translate(-377.541 -208.583)" fill="#37c56b"/>
  <path id="Path_729" data-name="Path 729" d="M246.758,292.923a7.666,7.666,0,0,1,.4.919h4.408l-2.88-2.79Z" transform="translate(-226.063 -266.205)" fill="#37c56b"/>
  <path id="Path_730" data-name="Path 730" d="M418.457,308.148h1.305v-1.264Z" transform="translate(-381.216 -280.511)" fill="#37c56b"/>
  <path id="Path_731" data-name="Path 731" d="M194.891,249.584a6.592,6.592,0,0,1,4.063,2.235l.07.084,1.683-1.635-3.265-3.162Z" transform="translate(-179.195 -226.493)" fill="#37c56b"/>
  <path id="Path_732" data-name="Path 732" d="M256.63,343.107A12.68,12.68,0,0,0,260.85,336H242.38a9.318,9.318,0,0,1,0,2.779l-.482,3.236a17.438,17.438,0,0,1-.852,3.382,14.131,14.131,0,0,0,6.067,1.4A14.389,14.389,0,0,0,256.63,343.107Zm.5-5.565a.771.771,0,1,1-.771.771A.771.771,0,0,1,257.132,337.542Zm-3.855,3.855a.771.771,0,1,1-.771.771A.771.771,0,0,1,253.278,341.4Zm-3.855-2.313a.771.771,0,1,1-.771.771A.771.771,0,0,1,249.423,339.084Zm-4.626,1.542a.771.771,0,1,1,.771-.771A.771.771,0,0,1,244.8,340.626Zm1.542,3.855a.771.771,0,1,1,.771.771A.771.771,0,0,1,246.339,344.48Z" transform="translate(-220.899 -306.821)" fill="#37c56b"/>
  <path id="Path_733" data-name="Path 733" d="M369.031,250.286l3.261,3.166,2.807-2.718v-.889l-2.8-2.724Z" transform="translate(-336.553 -226.507)" fill="#37c56b"/>
  <path id="Path_734" data-name="Path 734" d="M284.762,250.175,281.49,247l-3.265,3.171,3.273,3.17Z" transform="translate(-254.498 -226.397)" fill="#37c56b"/>
  <circle id="Ellipse_172" data-name="Ellipse 172" cx="0.771" cy="0.771" r="0.771" transform="translate(10.792 18.386)" fill="#37c56b"/>
  <path id="Path_735" data-name="Path 735" d="M50.6,235.166a5.131,5.131,0,0,0-3.953-1.779,6.126,6.126,0,0,0-2.414.761,3.7,3.7,0,0,1-1.341.638c.15-2.277.519-5.162,1.322-6.367l-1.284-.856c-.71,1.067-1.207,3.034-1.474,5.848-.048.5-.083.973-.111,1.414a3.689,3.689,0,0,1-1.518-.676,6.132,6.132,0,0,0-2.414-.761,5.131,5.131,0,0,0-3.953,1.779,6.71,6.71,0,0,0-1.361,5.4l.482,3.236a15.576,15.576,0,0,0,1.8,5.321,4.973,4.973,0,0,0,5.647,2.6l1.263-.452a2.207,2.207,0,0,1,1.483,0l1.263.452a4.639,4.639,0,0,0,1.227.166,5.119,5.119,0,0,0,4.42-2.768,15.576,15.576,0,0,0,1.8-5.321l.482-3.236A6.71,6.71,0,0,0,50.6,235.166Zm-5.712,1.85a4.6,4.6,0,0,1-5.716,0,.771.771,0,0,1,1.09-1.091l-.008-.008a2.3,2.3,0,0,0,1.02.473h0a3.475,3.475,0,0,0,.756.08,3.4,3.4,0,0,0,.785-.089,2.334,2.334,0,0,0,.983-.457.771.771,0,1,1,1.09,1.09Z" transform="translate(-32.012 -208.834)" fill="#37c56b"/>
</svg>
