<svg xmlns="http://www.w3.org/2000/svg" width="39.156" height="39.153" viewBox="0 0 39.156 39.153">
  <path id="סיור_במשתלה" data-name="סיור במשתלה" d="M38.719,19.336l-5.429-1.9A8.484,8.484,0,0,0,22.4,22.888l-1.421,4.5-1.4,1.049V19.041a3.736,3.736,0,0,1,1.668-3.115l-.007-.01a.641.641,0,0,0,.106-.071A12.928,12.928,0,0,0,25.106,5.9L24.8.987A.652.652,0,0,0,23.535.808l-2.11,5.907a20.413,20.413,0,0,0-1.192,6.876v1.47a5.032,5.032,0,0,0-1.958,3.98v1.293l-.663-.664A11.5,11.5,0,0,0,9.747,9.026L5.429,7.59a.652.652,0,0,0-.844.761L5.3,11.589A11.45,11.45,0,0,0,16.548,20.6H16.7l1.575,1.575V36.515l-1.305-.653V34.52A10.213,10.213,0,0,0,3.526,24.832L.449,25.858a.653.653,0,0,0,0,1.24l.7.233a29.818,29.818,0,0,1,9.23,5.02l5.53,4.424a.632.632,0,0,0,.12.065l0,.009,2.249,1.126v1.554h1.305V30.066L21.929,28.3l-.007-.009A.729.729,0,0,0,22,28.244a26.377,26.377,0,0,1,15.3-7.484l1.284-.16a.652.652,0,0,0,.134-1.263Zm0,0" transform="translate(0 -0.375)" fill="#448ecd"/>
</svg>
