<svg xmlns="http://www.w3.org/2000/svg" width="74.065" height="68.317" viewBox="0 0 74.065 68.317">
  <g id="דשא_מרכזי" data-name="דשא מרכזי" transform="translate(0 -19.868)">
    <g id="Group_1455" data-name="Group 1455" transform="translate(0 19.868)">
      <path id="Path_990" data-name="Path 990" d="M54.579,81.423A132.421,132.421,0,0,1,65.485,37.212C46.945,47.628,43.564,73.2,42.966,83.638c.864-37.106,12-63.77,12-63.77C33.126,38.439,31.384,74.805,31.352,85.291c-.337-9.08-2.985-37.061-22.6-48.079a132.1,132.1,0,0,1,11.039,46.83C19.236,77.066,16.056,63.261,0,58.4c0,0,8.336,9.93,8.336,29.789H65.729c0-19.86,8.336-29.789,8.336-29.789C59.832,62.708,55.719,74.045,54.579,81.423Z" transform="translate(0 -19.868)" fill="#448ecd"/>
    </g>
  </g>
</svg>
