<svg xmlns="http://www.w3.org/2000/svg" width="38.749" height="37.179" viewBox="0 0 38.749 37.179">
  <path id="חממה" d="M19.845.17c1.07.422,5.631,2.5,5.631,6.99,0,4.054-2.288,8.271-4.843,11.417-.127-.049-.084.626-.084-7.9a.7.7,0,1,0-1.408,0v7.334a27.262,27.262,0,0,0-2.858-3.59A15.535,15.535,0,0,1,14.214,7.16c0-4.477,4.561-6.56,5.631-6.99Zm.7,20.363a.7.7,0,1,1-.7-.7A.7.7,0,0,1,20.549,20.533ZM5.387,21.758C1.129,20.35.552,15.388.46,14.241c.7-.887,4.111-4.582,8.383-3.2,3.864,1.26,7.151,4.709,9.362,8.144-.092.084.6.26-7.532-2.372a.7.7,0,0,0-.436,1.337l6.976,2.267A27.254,27.254,0,0,0,12.9,22.047a15.563,15.563,0,0,1-7.51-.289Zm11.15,12.9C13.911,38.285,9,37.293,7.879,37.011c-.619-.978-3.083-5.35-.45-8.968,2.365-3.252,6.736-5.357,10.636-6.384.063.1.387-.408-4.582,6.434a.7.7,0,0,0,1.14.817l4.315-5.941a27.24,27.24,0,0,0,.2,4.582,15.38,15.38,0,0,1-2.6,7.109Zm15.725-6.617c2.633,3.618.169,7.989-.45,8.968-1.119.282-6.032,1.274-8.658-2.351-2.4-3.3-3.013-8.052-2.816-12.086.12,0-.289-.542,4.709,6.335a.7.7,0,1,0,1.133-.817l-4.294-5.941A27.8,27.8,0,0,0,26.363,23.4a15.6,15.6,0,0,1,5.9,4.646Zm-10.3-7.377c0-.12-.528.1,7.489-2.513a.7.7,0,0,0-.436-1.337l-6.976,2.238a28.318,28.318,0,0,0,2.534-3.85,15.668,15.668,0,0,1,6.258-4.188c4.223-1.408,7.651,2.309,8.383,3.2-.07,1.154-.633,6.131-4.927,7.518-3.836,1.288-8.524.415-12.325-1.063Z" transform="translate(-0.46 -0.17)" fill="#448ecd"/>
</svg>
