<svg xmlns="http://www.w3.org/2000/svg" width="33.548" height="33.958" viewBox="0 0 33.548 33.958">
  <g id="אולם" transform="translate(-2.686)">
    <g id="Group_1447" data-name="Group 1447" transform="translate(2.686)">
      <g id="Group_1446" data-name="Group 1446" transform="translate(0)">
        <path id="Path_957" data-name="Path 957" d="M8.825,318.086l.01-.024a1.736,1.736,0,0,1,.956-.864l1.453-.669.077-.065q-.083-.1-.162-.2a5.534,5.534,0,0,1-1.048-3.28l-.2-.092-.749-.632-1.2,1.2h-.14l-1.2-1.2-.749.632-1.559.717a1.016,1.016,0,0,0-.573.488s-1.694,4.034-.775,4.034H8.8Z" transform="translate(-2.686 -288.454)" fill="#448ecd"/>
        <path id="Path_958" data-name="Path 958" d="M34.04,230.853c.027,2.491,1.419,3.976,2.811,3.976,1.189,0,2.784-1.484,2.811-3.976.017-1.728-.806-2.763-2.811-2.763S34.022,229.125,34.04,230.853Z" transform="translate(-31.649 -210.699)" fill="#448ecd"/>
        <path id="Path_959" data-name="Path 959" d="M178.639,317.2a1.709,1.709,0,0,1,.966.889l.02.047h1.833l.021-.049.011-.024a1.734,1.734,0,0,1,.955-.864l1.453-.669.077-.065q-.083-.1-.162-.2a5.531,5.531,0,0,1-1.047-3.281l-.2-.092-.749-.632-1.2,1.2h-.14l-1.2-1.2-.749.632-.2.092a5.469,5.469,0,0,1-1.134,3.294c-.04.049-.08.1-.122.144l.123.1Z" transform="translate(-163.767 -288.452)" fill="#448ecd"/>
        <path id="Path_960" data-name="Path 960" d="M188.628,234.828c1.189,0,2.784-1.485,2.811-3.976.017-1.728-.806-2.763-2.811-2.763s-2.828,1.035-2.811,2.763C185.845,233.343,187.237,234.828,188.628,234.828Z" transform="translate(-171.854 -210.698)" fill="#448ecd"/>
        <path id="Path_961" data-name="Path 961" d="M336.465,314.1a1.007,1.007,0,0,0-.573-.488l-1.559-.717-.749-.632-1.2,1.2h-.14l-1.2-1.2-.749.632-.2.092a5.469,5.469,0,0,1-1.134,3.294c-.04.049-.08.1-.121.144l.123.1,1.453.669a1.709,1.709,0,0,1,.966.889l.02.047h5.845C338.16,318.133,336.465,314.1,336.465,314.1Z" transform="translate(-303.966 -288.453)" fill="#448ecd"/>
        <path id="Path_962" data-name="Path 962" d="M337.593,230.853c.027,2.491,1.419,3.976,2.811,3.976,1.189,0,2.784-1.484,2.811-3.976.017-1.728-.806-2.763-2.811-2.763S337.575,229.125,337.593,230.853Z" transform="translate(-312.057 -210.699)" fill="#448ecd"/>
        <path id="Path_963" data-name="Path 963" d="M87.356,369.72,85.8,369l-.749-.631-1.2,1.2h-.14l-1.2-1.2-.749.631-1.559.718a1.009,1.009,0,0,0-.572.488s-1.694,4.034-.775,4.034H88.7c.919,0-.775-4.034-.775-4.034A1,1,0,0,0,87.356,369.72Z" transform="translate(-72.788 -340.284)" fill="#448ecd"/>
        <path id="Path_964" data-name="Path 964" d="M112.738,284.193c-2.005,0-2.828,1.034-2.811,2.762.027,2.49,1.42,3.976,2.811,3.976,1.189,0,2.784-1.486,2.811-3.976C115.566,285.227,114.743,284.193,112.738,284.193Z" transform="translate(-101.75 -262.524)" fill="#448ecd"/>
        <path id="Path_965" data-name="Path 965" d="M239.137,369.72,237.578,369l-.749-.631-1.2,1.2h-.14l-1.2-1.2-.749.631-1.558.718a1.011,1.011,0,0,0-.573.488s-1.694,4.034-.775,4.034h9.857c.919,0-.775-4.034-.775-4.034A1,1,0,0,0,239.137,369.72Z" transform="translate(-212.995 -340.284)" fill="#448ecd"/>
        <path id="Path_966" data-name="Path 966" d="M264.519,290.936c1.189,0,2.784-1.486,2.811-3.976.017-1.729-.806-2.762-2.811-2.762s-2.829,1.034-2.811,2.762C261.735,289.45,263.127,290.936,264.519,290.936Z" transform="translate(-241.959 -262.528)" fill="#448ecd"/>
        <path id="Path_967" data-name="Path 967" d="M207.971,79.1a.289.289,0,0,0,.3-.029l2.97-2.27a.288.288,0,0,0,0-.458l-2.97-2.27a.288.288,0,0,0-.463.229v4.539A.289.289,0,0,0,207.971,79.1Z" transform="translate(-192.17 -68.37)" fill="#448ecd"/>
        <path id="Path_968" data-name="Path 968" d="M18.3,16.4H48.728a.4.4,0,0,0,.4-.4V.4a.4.4,0,0,0-.4-.4H18.3a.4.4,0,0,0-.4.4V16A.4.4,0,0,0,18.3,16.4ZM33.516,3.527A4.675,4.675,0,1,1,28.841,8.2,4.675,4.675,0,0,1,33.516,3.527Z" transform="translate(-16.742)" fill="#448ecd"/>
      </g>
    </g>
  </g>
</svg>
