<svg xmlns="http://www.w3.org/2000/svg" width="48.29" height="47.408" viewBox="0 0 48.29 47.408">
  <g id="מוקד_מידע" data-name="מוקד מידע" transform="translate(0 -5.588)">
    <path id="Path_979" data-name="Path 979" d="M20.353,31.665a2.479,2.479,0,1,1-2.479-2.479A2.479,2.479,0,0,1,20.353,31.665Zm10.064-2.479a2.479,2.479,0,1,0,2.48,2.48A2.479,2.479,0,0,0,30.417,29.185Zm17.873,1.1v4.712a4.284,4.284,0,0,1-4.284,4.284H40.9C37.818,47.83,29.953,53,24.145,53S10.472,47.83,7.392,39.278H4.284A4.283,4.283,0,0,1,0,34.995V30.283a4.282,4.282,0,0,1,2.246-3.768c.045-6.69,1.995-11.915,5.8-15.527,3.778-3.583,9.193-5.4,16.1-5.4s12.317,1.817,16.1,5.4c3.809,3.612,5.759,8.837,5.8,15.527A4.283,4.283,0,0,1,48.29,30.283Zm-9.066,1.4c0-1.1-.056-2.138-.14-3.141-1.9-1.739-5.352-3.059-9.708-3.549a6.316,6.316,0,0,1,1.366,2.6c-2.668-2.1-7.9-1.6-11.866-6.3-.227-.263-.423-.514-.593-.743l-.006-.008h0c-.7-.953-.945-1.52-.958-.892-.116,5.406-3.948,9.62-8.2,10.215-.027.595-.049,1.195-.049,1.821a19.4,19.4,0,0,0,1.008,6.244c2.39,2.883,6.337,3.7,9.83,3.913a4.467,4.467,0,0,1,3.8-1.752c2.3,0,4.16,1.322,4.16,2.953S26,45.991,23.7,45.991A4.372,4.372,0,0,1,19.827,44.1a20.482,20.482,0,0,1-7.518-1.688C15.673,47.375,20.888,50,24.145,50,29.263,50,39.223,43.532,39.223,31.68ZM43.465,26c-.273-11.674-6.936-17.841-19.32-17.841S5.1,14.325,4.825,26H6.473a20.57,20.57,0,0,1,3.81-9.659c3.081-3.965,7.745-5.975,13.862-5.975s10.781,2.01,13.862,5.975A20.571,20.571,0,0,1,41.817,26h1.648Z" fill="#448ecd"/>
  </g>
</svg>
