<svg id="מזנון" xmlns="http://www.w3.org/2000/svg" width="43.52" height="38.073" viewBox="0 0 43.52 38.073">
  <g id="_008---Coffee-and-Croissant" data-name="008---Coffee-and-Croissant">
    <path id="Shape" d="M51.917,17.02a.177.177,0,0,1,.183.009c.133.074.771.564,1.357,3.137-.653.027-1.5.085-2.486.212.01-.29.012-.573.013-.836C50.988,17.932,51.067,17.344,51.917,17.02Z" transform="translate(-11.367 -3.791)" fill="#448ecd"/>
    <path id="Shape-2" data-name="Shape" d="M48.571,23.912a.662.662,0,0,1,.521-.439c.144-.03.286-.051.444-.078a25.787,25.787,0,0,1,4.106-.36h.051a.364.364,0,0,1,.385.311,14.583,14.583,0,0,1-.207,4.636,11.7,11.7,0,0,1-1.35,3.144,17.793,17.793,0,0,0-4.747-5.594A6.882,6.882,0,0,0,48.571,23.912Z" transform="translate(-10.654 -5.137)" fill="#448ecd"/>
    <path id="Shape-3" data-name="Shape" d="M38.765,28l3.9-1.488c4.159,1.636,6.682,6.971,7.148,7.972-.43.743-1.813,2.618-5.368,3.974a12.952,12.952,0,0,1-3.809.866H39.607a6.148,6.148,0,0,1-1.6-.287c-.044-.19-.1-.451-.164-.765-.37-1.925-1.016-6.761.918-10.272Z" transform="translate(-8.349 -5.912)" fill="#448ecd"/>
    <path id="Shape-4" data-name="Shape" d="M34.046,37.994a10.374,10.374,0,0,1-2.915-1.511,13.388,13.388,0,0,1-2.916-3.427.466.466,0,0,1,.14-.567c.01-.009.02-.019.029-.028a27.6,27.6,0,0,1,3.412-2.51c.124-.078.247-.161.4-.248a.569.569,0,0,1,.6-.013,6.216,6.216,0,0,0,1.566.711,19.275,19.275,0,0,0-.311,7.594Z" transform="translate(-6.282 -6.603)" fill="#448ecd"/>
    <path id="Shape-5" data-name="Shape" d="M27.059,26.648a.26.26,0,0,1,.169-.173c.824-.311,1.2.061,2.16,1.291.165.211.341.436.531.662-.847.568-1.544,1.095-2.071,1.519C27.04,28.146,26.9,27.069,27.059,26.648Z" transform="translate(-6.021 -5.881)" fill="#448ecd"/>
    <path id="Shape-6" data-name="Shape" d="M0,26.581C0,23.517.457,20,4.017,20a7,7,0,0,1,2.2.343v1.67a5.191,5.191,0,0,0-2.2-.458c-2.275,0-2.463,2.378-2.463,5.027,0,2.691.921,4.3,2.463,4.3a6.813,6.813,0,0,0,2.2-.388v.388a8.408,8.408,0,0,0,.1,1.213,8.336,8.336,0,0,1-2.3.341C1.5,32.432,0,30.245,0,26.581Z" transform="translate(0 -4.46)" fill="#448ecd"/>
    <path id="Shape-7" data-name="Shape" d="M10.181,31.779A6.837,6.837,0,0,1,10,30.209V17.777A.777.777,0,0,1,10.777,17H27.871a.777.777,0,0,1,.777.777v7.494a2.114,2.114,0,0,0-1.179.233c-.225-.256-.441-.521-.646-.785-.88-1.128-1.974-2.535-3.938-1.787a1.8,1.8,0,0,0-1.065,1.061c-.4,1.044-.052,2.688,1.056,5a1.957,1.957,0,0,0-.035,2.071A14.95,14.95,0,0,0,26.126,34.9c.136.1.277.2.417.3A6.935,6.935,0,0,1,21.655,37.2H16.993A6.954,6.954,0,0,1,10.181,31.779Z" transform="translate(-2.23 -3.791)" fill="#448ecd"/>
    <path id="Shape-8" data-name="Shape" d="M44.4,46.554c0,.842-1.088,1.554-2.37,1.554H6.37C5.088,48.108,4,47.4,4,46.554V45.071A.5.5,0,0,1,4.272,45h39.86a.5.5,0,0,1,.272.071Z" transform="translate(-0.892 -10.035)" fill="#448ecd"/>
    <path id="Shape-9" data-name="Shape" d="M20.777,9.324A.777.777,0,0,1,20,8.547a3.517,3.517,0,0,1,.947-2.428,2.052,2.052,0,0,0,0-2.914A3.517,3.517,0,0,1,20,.777a.777.777,0,1,1,1.554,0,2.007,2.007,0,0,0,.607,1.457,3.586,3.586,0,0,1,0,4.856,2.007,2.007,0,0,0-.607,1.457A.777.777,0,0,1,20.777,9.324Z" transform="translate(-4.46)" fill="#448ecd"/>
    <path id="Shape-10" data-name="Shape" d="M14.777,9.324A.777.777,0,0,1,14,8.547a3.517,3.517,0,0,1,.947-2.428,2.052,2.052,0,0,0,0-2.914A3.517,3.517,0,0,1,14,.777a.777.777,0,1,1,1.554,0,2.007,2.007,0,0,0,.607,1.457,3.586,3.586,0,0,1,0,4.856,2.007,2.007,0,0,0-.607,1.457A.777.777,0,0,1,14.777,9.324Z" transform="translate(-3.122)" fill="#448ecd"/>
    <path id="Shape-11" data-name="Shape" d="M26.777,9.324A.777.777,0,0,1,26,8.547a3.517,3.517,0,0,1,.947-2.428,2.052,2.052,0,0,0,0-2.914A3.517,3.517,0,0,1,26,.777a.777.777,0,0,1,1.554,0,2.007,2.007,0,0,0,.607,1.457,3.586,3.586,0,0,1,0,4.856,2.007,2.007,0,0,0-.607,1.457A.777.777,0,0,1,26.777,9.324Z" transform="translate(-5.798)" fill="#448ecd"/>
  </g>
</svg>
