<svg xmlns="http://www.w3.org/2000/svg" width="48.453" height="40.415" viewBox="0 0 48.453 40.415">
  <path id="מרכז_למידה" data-name="מרכז למידה" d="M42.206,39V32.02a2.85,2.85,0,0,1,0-4.945V15.7l2.839-1.009V27.076a2.851,2.851,0,0,1,0,4.945V39a1.419,1.419,0,0,1-2.839,0ZM14.718,27.117C11.573,26.1,9.978,24.8,9.978,23.276V17.029L22.8,21.587a4.261,4.261,0,0,0,2.852,0l12.821-4.559v6.247c0,1.528-1.594,2.821-4.739,3.841a31.717,31.717,0,0,1-9.509,1.38A31.715,31.715,0,0,1,14.718,27.117Zm9.033-8.2L.944,10.8a1.42,1.42,0,0,1,0-2.677L23.755.081a1.416,1.416,0,0,1,.944,0L47.507,8.128a1.42,1.42,0,0,1,0,2.677L24.7,18.913a1.422,1.422,0,0,1-.951,0Z" fill="#448ecd"/>
</svg>
