<svg xmlns="http://www.w3.org/2000/svg" width="44.597" height="29.732" viewBox="0 0 44.597 29.732">
  <g id="מבואה" transform="translate(0 -85.333)">
    <g id="Group_1450" data-name="Group 1450" transform="translate(0 85.333)">
      <g id="Group_1449" data-name="Group 1449">
        <path id="Path_980" data-name="Path 980" d="M37.164,88.519V85.333H32.917v3.185H11.68V85.333H7.433v3.185H0v16.99H7.433v9.557H11.68v-9.557H32.917v9.557h4.247v-9.557H44.6V88.519ZM11.2,99.081H10.25L9.661,97.6l-.584,1.483H8.13L6.507,94.934H7.739l.9,2.844.286-.864-.671-1.98H9.3l.362,1.279.368-1.279h1.046l-.683,1.98.3.864.894-2.844H12.82Zm5.157,0H13.4V94.934h2.9v.993H14.537v.584h1.507v.923H14.537v.654h1.816Zm3.843,0H17.177V94.934h1.139v3.154H20.2Zm3.986-.52a1.8,1.8,0,0,1-.432.3,2.291,2.291,0,0,1-.52.187,2.4,2.4,0,0,1-.54.064,1.921,1.921,0,0,1-.844-.184,2.137,2.137,0,0,1-.66-.488,2.214,2.214,0,0,1-.429-.689,2.119,2.119,0,0,1-.152-.783,2.042,2.042,0,0,1,.143-.748,2.021,2.021,0,0,1,.417-.66,2.129,2.129,0,0,1,.666-.473,2.306,2.306,0,0,1,1.936.067,1.618,1.618,0,0,1,.657.657l-.87.619a.732.732,0,0,0-.155-.251.783.783,0,0,0-.213-.158.921.921,0,0,0-.242-.082,1.331,1.331,0,0,0-.242-.023.85.85,0,0,0-.715.347,1.086,1.086,0,0,0-.17.35,1.411,1.411,0,0,0-.056.388,1.335,1.335,0,0,0,.064.415,1.082,1.082,0,0,0,.187.351.915.915,0,0,0,.3.242.871.871,0,0,0,.4.091,1.143,1.143,0,0,0,.239-.026.894.894,0,0,0,.237-.087.8.8,0,0,0,.2-.158.7.7,0,0,0,.143-.237l.929.555A1.186,1.186,0,0,1,24.182,98.561Zm4.739-.75a2.127,2.127,0,0,1-.438.666,2.154,2.154,0,0,1-.669.464,2.042,2.042,0,0,1-.85.175,1.994,1.994,0,0,1-.858-.181,2.121,2.121,0,0,1-.66-.476,2.151,2.151,0,0,1-.426-.675A2.089,2.089,0,0,1,24.868,97a2.036,2.036,0,0,1,.158-.788,2.094,2.094,0,0,1,.441-.669,2.153,2.153,0,0,1,.672-.461,2.072,2.072,0,0,1,.85-.172,1.994,1.994,0,0,1,.858.181,2.1,2.1,0,0,1,.66.479,2.147,2.147,0,0,1,.424.677,2.108,2.108,0,0,1,.149.777A2.011,2.011,0,0,1,28.921,97.811Zm5.209,1.27H32.992V96.9l-.7,1.536H31.69l-.7-1.536v2.184H29.856V94.934H31.1l.894,1.951.9-1.951h1.238Zm3.96,0H35.135V94.934h2.9v.993H36.274v.584h1.507v.923H36.274v.654H38.09Z" transform="translate(0 -85.333)" fill="#448ecd"/>
      </g>
    </g>
    <g id="Group_1452" data-name="Group 1452" transform="translate(26.025 95.921)">
      <g id="Group_1451" data-name="Group 1451" transform="translate(0 0)">
        <path id="Path_981" data-name="Path 981" d="M300.616,207.564a1,1,0,0,0-.178-.345.962.962,0,0,0-1.139-.237.868.868,0,0,0-.295.248,1.053,1.053,0,0,0-.172.35,1.452,1.452,0,0,0-.056.4,1.408,1.408,0,0,0,.059.406,1.057,1.057,0,0,0,.175.347.88.88,0,0,0,.295.245,1,1,0,0,0,.85,0,.861.861,0,0,0,.295-.251,1.087,1.087,0,0,0,.169-.353,1.492,1.492,0,0,0,.055-.4A1.415,1.415,0,0,0,300.616,207.564Z" transform="translate(-298.776 -206.889)" fill="#448ecd"/>
      </g>
    </g>
  </g>
</svg>
