<svg xmlns="http://www.w3.org/2000/svg" width="34.063" height="31.122" viewBox="0 0 34.063 31.122">
  <g id="מרפאה" transform="translate(0 -19.008)">
    <g id="Group_1433" data-name="Group 1433" transform="translate(0 19.008)">
      <g id="Group_1432" data-name="Group 1432" transform="translate(0 0)">
        <path id="Path_944" data-name="Path 944" d="M17.982,19.394a1.363,1.363,0,0,0-1.9,0L0,34.287l1.9,2.02,1.664-1.545V48.744A1.4,1.4,0,0,0,4.951,50.13H29.112A1.4,1.4,0,0,0,30.5,48.744V34.8l1.664,1.545,1.9-2.02Zm-.951,26.617a9.031,9.031,0,1,1,9.031-9.031A9.027,9.027,0,0,1,17.032,46.011Z" transform="translate(0 -19.008)" fill="#448ecd"/>
      </g>
    </g>
    <g id="Group_1435" data-name="Group 1435" transform="translate(12.318 32.267)">
      <g id="Group_1434" data-name="Group 1434">
        <path id="Path_945" data-name="Path 945" d="M165.332,193.727V190.4h-2.773v3.327h-3.327V196.5h3.327v3.327h2.773V196.5h3.327v-2.773Z" transform="translate(-159.232 -190.4)" fill="#448ecd"/>
      </g>
    </g>
  </g>
</svg>
