<svg xmlns="http://www.w3.org/2000/svg" width="39.52" height="34.734" viewBox="0 0 39.52 34.734">
  <g id="משרד_ואחסנה" data-name="משרד ואחסנה" transform="translate(0 -31)">
    <path id="Path_920" data-name="Path 920" d="M38.362,47.209H13.971V44.894h8.1a1.158,1.158,0,0,0,1.158-1.158V32.158A1.158,1.158,0,0,0,22.075,31H3.551a1.158,1.158,0,0,0-1.158,1.158V43.736a1.158,1.158,0,0,0,1.158,1.158h8.1v2.316H1.158a1.158,1.158,0,0,0,0,2.316H2.393V64.576a1.158,1.158,0,1,0,2.316,0V63.418h9.262v1.158a1.158,1.158,0,1,0,2.316,0V54.156H34.811v10.42a1.158,1.158,0,1,0,2.316,0V49.525h1.235a1.158,1.158,0,1,0,0-2.316ZM10.5,56.472a1.158,1.158,0,1,1,1.158-1.158A1.158,1.158,0,0,1,10.5,56.472ZM34.811,51.84H16.286V49.525H34.811Z" transform="translate(0 0)" fill="#448ecd"/>
    <path id="Path_921" data-name="Path 921" d="M332.158,37.947h4.631a1.158,1.158,0,0,0,1.158-1.158V35.631h2.316V41.42h-3.473a3.478,3.478,0,0,0-3.473,3.473h9.262V34.473a1.158,1.158,0,0,0-1.158-1.158h-3.673A3.473,3.473,0,0,0,331,34.473v2.316A1.158,1.158,0,0,0,332.158,37.947Z" transform="translate(-305.451 0)" fill="#448ecd"/>
  </g>
</svg>
