<svg xmlns="http://www.w3.org/2000/svg" width="26.48" height="50.234" viewBox="0 0 26.48 50.234">
  <g id="משרדים" transform="translate(-121.085 -0.064)">
    <path id="Path_924" data-name="Path 924" d="M211.588,420.567h2.886v8.967h-2.886Z" transform="translate(-81.621 -379.236)" fill="#448ecd"/>
    <path id="Path_925" data-name="Path 925" d="M121.085,50.3h5.938V38.378h14.605V50.3h5.938V.064l-26.48,8.908Zm17.6-41.106h2.944v7.974h-2.944Zm0,12.853h2.944V26.06h-2.944Zm0,8.889h2.944v4.015h-2.944ZM132.853,11.2H135.8V17.19h-2.944Zm0,10.874H135.8v4.015h-2.944Zm0,8.889H135.8v4.015h-2.944ZM127.023,13.15h2.944v4.015h-2.944Zm0,8.895h2.944V26.06h-2.944Zm0,8.889h2.944v4.015h-2.944Z" transform="translate(0 0)" fill="#448ecd"/>
    <path id="Path_926" data-name="Path 926" d="M271,420.567h2.886v8.967H271Z" transform="translate(-135.203 -379.236)" fill="#448ecd"/>
  </g>
</svg>
