<svg xmlns="http://www.w3.org/2000/svg" width="43.607" height="43.607" viewBox="0 0 43.607 43.607">
  <path id="תחנות_הפעלה" data-name="תחנות הפעלה" d="M.232,17.346c.756-1.06,1.5-2.131,2.253-3.192a26.826,26.826,0,0,1,2.738-3.581,5.47,5.47,0,0,1,2.82-1.787,4.205,4.205,0,0,1,.441-.045l11.147-.121a1.994,1.994,0,0,0,1.649-.863l3.08-4.349a1.245,1.245,0,0,1,1.731-.3,1.257,1.257,0,0,1,.43,1.826L22.448,10.69a2.078,2.078,0,0,1-1.7.9l-2.941.065a3,3,0,0,0-2.987,2.99v4.563a.353.353,0,0,0,.176.305l5.75,3.327v6.508H17.7V24.545a.353.353,0,0,0-.18-.308L11.6,20.918a.358.358,0,0,0-.526.308v9.518L7.834,34.057v-20.8a.356.356,0,0,0-.569-.279,9.745,9.745,0,0,0-2.123,2.008L2.387,18.878a1.209,1.209,0,0,1-.814.511,1.208,1.208,0,0,1-.937-.217L.522,19.09a1.254,1.254,0,0,1-.29-1.744ZM29.653,22.5V0H41.645L40.467,2.263a.615.615,0,0,0,0,.569L41.645,5.1H30.886v17.48l-.612-.96ZM2.2,43.607H43.607l-13.338-20.9L21.9,34.677a.356.356,0,0,1-.49.092L14.274,30ZM8.81,4.228a4.458,4.458,0,0,0,.607,2.3,2.628,2.628,0,0,0,1.575,1.249,1.992,1.992,0,0,0,.936,0A2.628,2.628,0,0,0,13.5,6.525a4.457,4.457,0,0,0,.607-2.3,2.7,2.7,0,0,0-.967-2.29,2.831,2.831,0,0,0-1.683-.488,2.831,2.831,0,0,0-1.683.488A2.7,2.7,0,0,0,8.81,4.228Z" transform="translate(0)" fill="#448ecd" fill-rule="evenodd"/>
</svg>
