<svg xmlns="http://www.w3.org/2000/svg" width="45.973" height="42.604" viewBox="0 0 45.973 42.604">
  <g id="שירותים" transform="translate(0 -18.766)">
    <g id="Group_1370" data-name="Group 1370" transform="translate(0 26.896)">
      <g id="Group_1369" data-name="Group 1369" transform="translate(0)">
        <path id="Path_901" data-name="Path 901" d="M13.167,109.31h-9.1a4.013,4.013,0,0,0-4,3.984L0,125.724a1.692,1.692,0,0,0,1.683,1.7h.009a1.692,1.692,0,0,0,1.692-1.683l.062-12.43v0a.336.336,0,0,1,.671,0v28.442a2.03,2.03,0,1,0,4.061,0V125.524h.877v16.228a2.03,2.03,0,1,0,4.061,0c0-26.838-.036-11.49-.037-28.417a.355.355,0,0,1,.708-.028h0l-.011,12.423a1.692,1.692,0,0,0,1.69,1.694h0a1.692,1.692,0,0,0,1.692-1.69l.011-12.43s0-.007,0-.01A4.013,4.013,0,0,0,13.167,109.31Z" transform="translate(0 -109.31)" fill="#448ecd"/>
      </g>
    </g>
    <g id="Group_1372" data-name="Group 1372" transform="translate(5.111 18.766)">
      <g id="Group_1371" data-name="Group 1371">
        <circle id="Ellipse_26" data-name="Ellipse 26" cx="3.506" cy="3.506" r="3.506" fill="#448ecd"/>
      </g>
    </g>
    <g id="Group_1374" data-name="Group 1374" transform="translate(24.982 26.993)">
      <g id="Group_1373" data-name="Group 1373" transform="translate(0 0)">
        <path id="Path_902" data-name="Path 902" d="M299.123,124.076c-.031-.089-3.108-8.864-3.592-10.273-.779-2.268-2.086-3.417-3.883-3.417H285.8c-1.8,0-3.1,1.15-3.883,3.417-.484,1.409-3.561,10.184-3.592,10.273a1.68,1.68,0,0,0,3.17,1.112c.1-.283,1.95-5.426,2.983-8.386-.108.883.2-.95-2.4,12.495a.935.935,0,0,0,.916,1.112h1.282v12.183a2.015,2.015,0,0,0,4.031,0V130.408h.87v12.183a2.015,2.015,0,1,0,4.031,0V130.408h1.282a.934.934,0,0,0,.916-1.112c-2.58-13.322-2.3-11.775-2.384-12.495,1.041,2.982,2.838,8.107,2.935,8.386a1.679,1.679,0,1,0,3.17-1.111Z" transform="translate(-278.227 -110.386)" fill="#448ecd"/>
      </g>
    </g>
    <g id="Group_1376" data-name="Group 1376" transform="translate(32.012 18.922)">
      <g id="Group_1375" data-name="Group 1375" transform="translate(0 0)">
        <circle id="Ellipse_27" data-name="Ellipse 27" cx="3.481" cy="3.481" r="3.481" fill="#448ecd"/>
      </g>
    </g>
    <g id="Group_1378" data-name="Group 1378" transform="translate(20.233 21.025)">
      <g id="Group_1377" data-name="Group 1377" transform="translate(0 0)">
        <path id="Path_903" data-name="Path 903" d="M226.627,43.925a1.3,1.3,0,0,0-1.3,1.3V80.714a1.3,1.3,0,0,0,2.591,0V45.221A1.3,1.3,0,0,0,226.627,43.925Z" transform="translate(-225.331 -43.925)" fill="#448ecd"/>
      </g>
    </g>
  </g>
</svg>
