<svg id="roast-chicken" xmlns="http://www.w3.org/2000/svg" width="38.693" height="36.194" viewBox="0 0 38.693 36.194">
  <g id="Group_975" data-name="Group 975" transform="translate(4.587 2.267)">
    <g id="Group_974" data-name="Group 974" transform="translate(0 0)">
      <path id="Path_704" data-name="Path 704" d="M63.668,53.141a3.858,3.858,0,0,0,0-6.421,1.134,1.134,0,0,0-1.258,1.886,1.591,1.591,0,0,1,0,2.648,3.858,3.858,0,0,0,0,6.421,1.134,1.134,0,1,0,1.258-1.886,1.591,1.591,0,0,1,0-2.648Z" transform="translate(-60.692 -46.529)" fill="#37c56b"/>
    </g>
  </g>
  <g id="Group_977" data-name="Group 977" transform="translate(11.388 0)">
    <g id="Group_976" data-name="Group 976">
      <path id="Path_705" data-name="Path 705" d="M153.668,23.144a3.858,3.858,0,0,0,0-6.421,1.134,1.134,0,1,0-1.258,1.886,1.591,1.591,0,0,1,0,2.648,3.858,3.858,0,0,0,0,6.421,1.134,1.134,0,1,0,1.258-1.886,1.591,1.591,0,0,1,0-2.648Z" transform="translate(-150.692 -16.533)" fill="#37c56b"/>
    </g>
  </g>
  <g id="Group_979" data-name="Group 979" transform="translate(20.666 11.436)">
    <g id="Group_978" data-name="Group 978" transform="translate(0 0)">
      <path id="Path_706" data-name="Path 706" d="M281.209,167.856a9.683,9.683,0,0,1-4.307,2.04,4.532,4.532,0,1,0,5.553,5.215,8.462,8.462,0,0,1,1.323-3.314,7.373,7.373,0,0,1,.628-.721Z" transform="translate(-273.459 -167.856)" fill="#37c56b"/>
    </g>
  </g>
  <g id="Group_981" data-name="Group 981" transform="translate(30.025 4.495)">
    <g id="Group_980" data-name="Group 980" transform="translate(0 0)">
      <path id="Path_707" data-name="Path 707" d="M405.186,79.895a3.487,3.487,0,0,0-2.507-.708,3.442,3.442,0,0,0-.713-2.512,2.263,2.263,0,0,0-3.2,0,2.29,2.29,0,0,0-.445,2.59l.343.727-1.372,1.363,3.191,3.215,1.381-1.381.722.343a2.368,2.368,0,0,0,2.6-.443A2.266,2.266,0,0,0,405.186,79.895Z" transform="translate(-397.294 -76.013)" fill="#37c56b"/>
    </g>
  </g>
  <g id="Group_983" data-name="Group 983" transform="translate(9.778 14.224)">
    <g id="Group_982" data-name="Group 982" transform="translate(0 0)">
      <path id="Path_708" data-name="Path 708" d="M153.1,206.5a8.873,8.873,0,0,0-.675.743,6.129,6.129,0,0,0-.916,2.37,6.8,6.8,0,1,1-12.419-4.871,14.637,14.637,0,0,0-9.7,9.759l.025-.009a4.96,4.96,0,0,1,1.608-.248,5.613,5.613,0,0,1,3.4,1.163,5.613,5.613,0,0,1,3.4-1.163,5.675,5.675,0,0,1,5.668,5.668h9.335A9,9,0,0,0,153.1,206.5Z" transform="translate(-129.392 -204.743)" fill="#37c56b"/>
    </g>
  </g>
  <g id="Group_985" data-name="Group 985" transform="translate(1.209 25.992)">
    <g id="Group_984" data-name="Group 984" transform="translate(0 0)">
      <path id="Path_709" data-name="Path 709" d="M19.4,360.466a3.4,3.4,0,0,0-3.4,3.4h6.8A3.4,3.4,0,0,0,19.4,360.466Z" transform="translate(-16 -360.466)" fill="#37c56b"/>
    </g>
  </g>
  <g id="Group_987" data-name="Group 987" transform="translate(8.011 25.992)">
    <g id="Group_986" data-name="Group 986" transform="translate(0 0)">
      <path id="Path_710" data-name="Path 710" d="M109.4,360.466a2.9,2.9,0,0,0-.975.158A3.389,3.389,0,0,0,106,363.867h6.8A3.4,3.4,0,0,0,109.4,360.466Z" transform="translate(-106 -360.466)" fill="#37c56b"/>
    </g>
  </g>
  <g id="Group_989" data-name="Group 989" transform="translate(14.812 25.992)">
    <g id="Group_988" data-name="Group 988" transform="translate(0 0)">
      <path id="Path_711" data-name="Path 711" d="M199.4,360.466a3.4,3.4,0,0,0-3.4,3.4h6.8A3.4,3.4,0,0,0,199.4,360.466Z" transform="translate(-196 -360.466)" fill="#37c56b"/>
    </g>
  </g>
  <g id="Group_991" data-name="Group 991" transform="translate(0 31.66)">
    <g id="Group_990" data-name="Group 990">
      <path id="Path_712" data-name="Path 712" d="M0,435.466A4.534,4.534,0,0,0,4.534,440H34.159a4.534,4.534,0,0,0,4.534-4.534Z" transform="translate(0 -435.466)" fill="#37c56b"/>
    </g>
  </g>
</svg>
