<svg id="hotel" xmlns="http://www.w3.org/2000/svg" width="47.333" height="47.333" viewBox="0 0 47.333 47.333">
  <g id="Group_1244" data-name="Group 1244" transform="translate(0 20.511)">
    <g id="Group_1243" data-name="Group 1243">
      <path id="Path_893" data-name="Path 893" d="M29.978,217.546v-7.18A2.37,2.37,0,0,0,27.611,208H5.522a2.37,2.37,0,0,0-2.367,2.367v7.18A3.952,3.952,0,0,0,0,221.411v12.622a.789.789,0,0,0,.789.789H3.944a.789.789,0,0,0,.789-.789v-2.367H28.4v2.367a.789.789,0,0,0,.789.789h3.156a.789.789,0,0,0,.789-.789V221.411A3.952,3.952,0,0,0,29.978,217.546Zm-25.244-7.18a.79.79,0,0,1,.789-.789H27.611a.79.79,0,0,1,.789.789v7.1H26.822v-3.156a2.37,2.37,0,0,0-2.367-2.367H19.722a2.37,2.37,0,0,0-2.367,2.367v3.156H15.778v-3.156a2.37,2.37,0,0,0-2.367-2.367H8.678a2.37,2.37,0,0,0-2.367,2.367v3.156H4.733Zm20.511,3.944v3.156H18.933v-3.156a.79.79,0,0,1,.789-.789h4.733A.79.79,0,0,1,25.244,214.311Zm-11.044,0v3.156H7.889v-3.156a.79.79,0,0,1,.789-.789h4.733A.79.79,0,0,1,14.2,214.311Zm17.355,18.933H29.978v-2.367a.789.789,0,0,0-.789-.789H3.944a.789.789,0,0,0-.789.789v2.367H1.578v-6.311H31.555Zm0-7.889H1.578v-3.944a2.37,2.37,0,0,1,2.367-2.367H29.189a2.37,2.37,0,0,1,2.367,2.367Z" transform="translate(0 -208)" fill="#77c171"/>
    </g>
  </g>
  <g id="Group_1246" data-name="Group 1246" transform="translate(34.711 29.978)">
    <g id="Group_1245" data-name="Group 1245">
      <path id="Path_894" data-name="Path 894" d="M363.833,304H352.789a.789.789,0,0,0-.789.789v11.833h1.578v-4.733h9.467v4.733h1.578V304.789A.789.789,0,0,0,363.833,304Zm-.789,6.311h-9.467v-4.733h9.467Z" transform="translate(-352 -304)" fill="#77c171"/>
    </g>
  </g>
  <g id="Group_1248" data-name="Group 1248" transform="translate(39.641 33.133)">
    <g id="Group_1247" data-name="Group 1247" transform="translate(0 0)">
      <rect id="Rectangle_1075" data-name="Rectangle 1075" width="3" height="2" transform="translate(0.358 0.2)" fill="#77c171"/>
    </g>
  </g>
  <g id="Group_1250" data-name="Group 1250" transform="translate(37.077 18.144)">
    <g id="Group_1249" data-name="Group 1249">
      <path id="Path_895" data-name="Path 895" d="M383.846,189.272l-1.578-4.733a.789.789,0,0,0-.749-.539h-3.156a.789.789,0,0,0-.749.54l-1.578,4.733a.789.789,0,0,0,.749,1.038h2.367v2.367h-1.578v1.578h4.733v-1.578h-1.578v-2.367H383.1a.79.79,0,0,0,.749-1.039Zm-5.966-.539,1.052-3.156h2.019L382,188.733Z" transform="translate(-375.997 -184)" fill="#77c171"/>
    </g>
  </g>
  <g id="Group_1252" data-name="Group 1252" transform="translate(0 0)">
    <g id="Group_1251" data-name="Group 1251" transform="translate(0 0)">
      <path id="Path_896" data-name="Path 896" d="M46.867,10.324,23.989.069a.793.793,0,0,0-.645,0L.466,10.324a.79.79,0,0,0-.466.72v9.467H1.578V11.555l22.089-9.9,22.089,9.9v8.955h1.578V11.044A.79.79,0,0,0,46.867,10.324Z" transform="translate(0 0)" fill="#77c171"/>
    </g>
  </g>
</svg>
