<svg xmlns="http://www.w3.org/2000/svg" width="44.265" height="40.568" viewBox="0 0 44.265 40.568">
  <g id="ממד-מקלט" transform="translate(0.002 -17.868)">
    <path id="Path_973" data-name="Path 973" d="M323.239,24.819H308.913a1.665,1.665,0,0,0-1.665,1.665v4.391a2.554,2.554,0,0,1,1.407,4l-1.407,1.894v5.078H311.4v-.105a1.777,1.777,0,0,1,2.866-1.4l4.571,3.561a1.775,1.775,0,0,1,0,2.8l-4.571,3.561a1.777,1.777,0,0,1-2.866-1.4v-.105h-4.149V63.12a1.665,1.665,0,0,0,1.665,1.665h14.326A1.665,1.665,0,0,0,324.9,63.12V26.484a1.665,1.665,0,0,0-1.665-1.665Z" transform="translate(-280.642 -6.349)" fill="#448ecd"/>
    <circle id="Ellipse_28" data-name="Ellipse 28" cx="3.615" cy="3.615" r="3.615" transform="translate(12.508 22.98) rotate(-45)" fill="#448ecd"/>
    <g id="Group_1448" data-name="Group 1448" transform="translate(-0.002 25.358)">
      <path id="Path_974" data-name="Path 974" d="M26.941,104.68a1.639,1.639,0,0,0-2.294.338l-3.233,4.35L18.29,108.3l1.6.207a2.163,2.163,0,0,0-1.773-1.529l-4.482-.62a4.1,4.1,0,0,0-2.635.523l-5.29,3.1A1.639,1.639,0,0,0,4.9,111.5l.511,7.457a1.639,1.639,0,1,0,3.271-.224l-.442-6.444,2.156-1.264-1.175,7.945q-.087.586-.127,1.177l-.372,5.5L1.631,126.87a1.967,1.967,0,1,0,.669,3.878l8.615-1.486a1.968,1.968,0,0,0,1.628-1.806l.406-6,2.327.382,2.255,4.783.957,9.055a1.967,1.967,0,0,0,3.913-.414l-.992-9.386a1.968,1.968,0,0,0-.177-.632l-2.682-5.689.944-6.822L17.228,111.4l4.257,1.456a1.64,1.64,0,0,0,1.846-.573l3.947-5.311A1.639,1.639,0,0,0,26.941,104.68Z" transform="translate(0.002 -104.357)" fill="#448ecd"/>
    </g>
    <path id="Path_975" data-name="Path 975" d="M293.842,218.431v1.151a.73.73,0,0,0,1.178.576l4.571-3.561a.73.73,0,0,0,0-1.151l-4.571-3.561a.73.73,0,0,0-1.178.576v1.151h-6.181a.777.777,0,0,0-.777.777v3.265a.777.777,0,0,0,.777.777h6.181Z" transform="translate(-262.042 -177.073)" fill="#448ecd"/>
  </g>
</svg>
