<svg xmlns="http://www.w3.org/2000/svg" width="37.653" height="44.866" viewBox="0 0 37.653 44.866">
  <g id="מיגונית" transform="translate(-23.945)">
    <path id="Path_951" data-name="Path 951" d="M60.123,6.122,43.53.134A2.241,2.241,0,0,0,42,.135L25.466,6.123a2.289,2.289,0,0,0-1.521,2.124V22.433a17.569,17.569,0,0,0,2.969,9.415,31.307,31.307,0,0,0,6.145,6.881,46.832,46.832,0,0,0,8.752,5.9,2.272,2.272,0,0,0,2,.007,46.026,46.026,0,0,0,8.754-5.854A30.72,30.72,0,0,0,58.68,31.9,17.621,17.621,0,0,0,61.6,22.433V8.247A2.243,2.243,0,0,0,60.123,6.122ZM27.56,22.423V9.936A1.124,1.124,0,0,1,28.3,8.874L42.352,3.761a1.243,1.243,0,0,1,.42-.079V22.433H58.091a.205.205,0,0,1,0,.033c0,4.086-2.061,8.136-6.116,12.078a42.789,42.789,0,0,1-8.615,6.314,1.4,1.4,0,0,1-.59.142V22.427Z" transform="translate(0)" fill="#448ecd"/>
  </g>
</svg>
