<svg xmlns="http://www.w3.org/2000/svg" width="47.812" height="55.687" viewBox="0 0 47.812 55.687">
  <g id="מקלחות" transform="translate(-32)">
    <path id="Path_991" data-name="Path 991" d="M71.524,0a15.556,15.556,0,0,0-15.5,14.512A16.781,16.781,0,0,0,42.341,26.3H74.41A16.78,16.78,0,0,0,60.815,14.525a10.758,10.758,0,0,1,21.466,1.014V53.374h4.781V15.539A15.556,15.556,0,0,0,71.524,0Z" transform="translate(-7.251)" fill="#448ecd"/>
    <path id="Path_992" data-name="Path 992" d="M32,96H70.249v4.781H32Z" transform="translate(0 -67.313)" fill="#448ecd"/>
    <ellipse id="Ellipse_29" data-name="Ellipse 29" cx="2" cy="3" rx="2" ry="3" transform="translate(49.406 49.687)" fill="#448ecd"/>
    <circle id="Ellipse_30" data-name="Ellipse 30" cx="2" cy="2" r="2" transform="translate(49.406 43.687)" fill="#448ecd"/>
    <ellipse id="Ellipse_31" data-name="Ellipse 31" cx="2" cy="3" rx="2" ry="3" transform="translate(58.406 49.687)" fill="#448ecd"/>
    <circle id="Ellipse_32" data-name="Ellipse 32" cx="2" cy="2" r="2" transform="translate(58.406 43.687)" fill="#448ecd"/>
    <ellipse id="Ellipse_33" data-name="Ellipse 33" cx="2" cy="3" rx="2" ry="3" transform="translate(39.406 49.687)" fill="#448ecd"/>
    <circle id="Ellipse_34" data-name="Ellipse 34" cx="2" cy="2" r="2" transform="translate(39.406 43.687)" fill="#448ecd"/>
    <ellipse id="Ellipse_35" data-name="Ellipse 35" cx="2" cy="2.5" rx="2" ry="2.5" transform="translate(49.406 35.687)" fill="#448ecd"/>
    <ellipse id="Ellipse_36" data-name="Ellipse 36" cx="2" cy="2.5" rx="2" ry="2.5" transform="translate(58.406 35.687)" fill="#448ecd"/>
    <ellipse id="Ellipse_37" data-name="Ellipse 37" cx="2" cy="2.5" rx="2" ry="2.5" transform="translate(39.406 35.687)" fill="#448ecd"/>
  </g>
</svg>
