<svg xmlns="http://www.w3.org/2000/svg" width="41.185" height="41.185" viewBox="0 0 41.185 41.185">
  <path id="מגרש_ספורט" data-name="מגרש ספורט" d="M20.592,0A20.592,20.592,0,1,0,41.185,20.592,20.593,20.593,0,0,0,20.592,0Zm.735,5.937,7.159-2.862a19.263,19.263,0,0,1,2.352,1.268l.019.012a19.33,19.33,0,0,1,2.119,1.554l.058.05q.451.384.877.795c.036.035.073.069.109.1q.447.436.866.9l.068.08c.245.274.481.559.709.848.055.069.11.137.163.206.248.321.488.648.715.985l-1.427,6.066-7.021,2.341-6.764-5.412ZM5.358,8.9q.08-.1.163-.206.339-.43.7-.839c.026-.029.05-.058.076-.087q.416-.464.862-.9c.034-.034.068-.069.1-.1q.423-.408.87-.79L8.2,5.917a19.4,19.4,0,0,1,2.1-1.544l.027-.017a19.282,19.282,0,0,1,2.338-1.267l7.192,2.848V12.87L13.094,18.28,6.072,15.944,4.645,9.878c.229-.337.466-.663.713-.982ZM4.53,31.126q-.3-.462-.579-.94l-.045-.077q-.274-.477-.52-.969l-.006-.01A19.125,19.125,0,0,1,2.478,27v-.007c-.122-.343-.233-.695-.336-1.048l-.037-.13q-.141-.5-.256-1.007c-.007-.033-.015-.065-.022-.1a19.1,19.1,0,0,1-.363-2.325l4.191-5.028,6.973,2.324,2.024,8.094L11.326,32.2Zm20.633,8.132c-.343.085-.7.159-1.048.225l-.149.027c-.3.054-.6.1-.907.137l-.242.031c-.282.033-.567.058-.853.078-.09.006-.179.015-.268.021-.365.022-.733.036-1.1.036q-.509,0-1.013-.027c-.041,0-.079-.007-.12-.01q-.448-.026-.893-.068l-.034-.006a19.56,19.56,0,0,1-1.936-.309l-4.06-6.357,3.273-4.364h9.564L28.7,33.064Zm14.2-14.547c-.007.033-.015.065-.022.1q-.115.509-.256,1.007l-.037.13c-.1.354-.214.7-.337,1.048V27a19.061,19.061,0,0,1-.9,2.128l-.006.01q-.246.493-.52.969l-.045.077q-.274.481-.578.939l-6.772,1.068-3.348-4.42,2.023-8.092,6.973-2.324,4.191,5.028a19.061,19.061,0,0,1-.362,2.326Zm0,0" fill="#448ecd"/>
</svg>
