<svg xmlns="http://www.w3.org/2000/svg" xmlns:xlink="http://www.w3.org/1999/xlink" width="37.301" height="33.135" viewBox="0 0 37.301 33.135">
  <defs>
    <linearGradient id="linear-gradient" x1="0.5" x2="0.5" y2="1" gradientUnits="objectBoundingBox">
      <stop offset="0" stop-color="#0572BA"/>
      <stop offset="1" stop-color="#0572BA"/>
    </linearGradient>
  </defs>
  <path id="בקתה_מעורב" data-name="בקתה מעורב" d="M37.286,19.238a2.383,2.383,0,0,0-.931-1.633l-3.406-2.441V9.192H27.975V11.6L18.687,4.947.971,17.017a2.376,2.376,0,0,0-.95,1.6,2.337,2.337,0,0,0,.495,1.779,2.538,2.538,0,0,0,3.462.459l.374-.251v1.443a2.066,2.066,0,0,0,0,3.791v2.228a2.066,2.066,0,0,0,0,3.791V34.08a2.1,2.1,0,0,0-1.243,1.9,2.144,2.144,0,0,0,2.176,2.107H32.016a2.1,2.1,0,0,0,.311-4.182V32.033a2.088,2.088,0,0,0,0-4.152V26.014a2.088,2.088,0,0,0,0-4.152V20.715l.937.661a2.547,2.547,0,0,0,3.484-.37A2.337,2.337,0,0,0,37.286,19.238ZM29.219,10.4h2.487v3.877l-2.487-1.782ZM14.3,32.063v1.806H5.6V32.063ZM5.6,27.85V26.045h8.7V27.85Zm-.311,1.2H14.3V30.86H5.285a.9.9,0,1,1,0-1.806ZM14.3,36.878H5.285a.9.9,0,1,1,0-1.806H14.3Zm7.46,0H15.542V26.045h6.217V36.878ZM23,27.85V26.045h8.082V27.85Zm0,6.019V32.063h8.082v1.806Zm9.947,2.107a.919.919,0,0,1-.932.9H23V35.073h9.014A.919.919,0,0,1,32.949,35.975Zm0-6.019a.919.919,0,0,1-.932.9H23V29.054h9.014A.919.919,0,0,1,32.949,29.957Zm0-6.019a.919.919,0,0,1-.932.9H5.285a.9.9,0,1,1,0-1.806H32.016A.919.919,0,0,1,32.949,23.938ZM21.137,21.832H19.272V20.026h1.865Zm0-3.009H19.272V17.017h1.865Zm-3.108,0H16.164V17.017h1.865Zm-1.865,1.2h1.865v1.806H16.164Zm8.7,0h6.217v1.806h-8.7V15.813H14.92v6.019H5.6V20.026h6.838a.6.6,0,1,0,0-1.2H7l2.69-1.806h3.365v-1.2H11.484l2.69-1.806h8.659l1.49,1.052,1.067.754H24.246v1.2h2.847l2.556,1.806H24.868a.6.6,0,1,0,0,1.2Zm-8.9-7.222,2.647-1.777L21.129,12.8ZM35.78,20.25a1.274,1.274,0,0,1-1.749.18L32.291,19.2l-.532-.378h0L29.2,17.017h0L23.238,12.8h0L18.631,9.549,13.784,12.8h0L7.508,17.017h0L4.781,18.848h0l-.22.15-1.312.881a1.273,1.273,0,0,1-1.744-.22,1.181,1.181,0,0,1,.206-1.674L18.669,6.432,27.975,13.1h0l1.366.979,6.254,4.48a1.182,1.182,0,0,1,.454.809A1.168,1.168,0,0,1,35.78,20.25Z" transform="translate(0 -4.947)" fill="url(#linear-gradient)"/>
</svg>