<svg xmlns="http://www.w3.org/2000/svg" xmlns:xlink="http://www.w3.org/1999/xlink" width="45.829" height="30.656" viewBox="0 0 45.829 30.656">
  <defs>
    <linearGradient id="linear-gradient" x1="0.5" x2="0.5" y2="1" gradientUnits="objectBoundingBox">
      <stop offset="0" stop-color="#37C56B"/>
      <stop offset="1" stop-color="#37C56B"/>
    </linearGradient>
  </defs>
  <g id="אוהל_מעורב" data-name="אוהל מעורב" transform="translate(0 0)">
    <g id="Group_183" data-name="Group 183" transform="translate(0 0)">
      <path id="Path_397" data-name="Path 397" d="M45.816,95.8a.8.8,0,0,0-.144-.33c-.1-.112-7.736-10.359-12.584-18.477h0a.8.8,0,0,0-.8-.383,72.616,72.616,0,0,1-17.162-.5h-.1a.8.8,0,0,0-.726.383c-.088.152-9.043,15-14.028,19.283a.8.8,0,0,0,.51,1.4h1.93v6.133a.8.8,0,0,0,.718.8l26.66,2.656h.08a.8.8,0,0,0,.8-.734L43.582,102.5a.8.8,0,0,0,.582-.8V96.913l1.013-.183A.8.8,0,0,0,45.816,95.8ZM16.34,86.307c1.188,5.407,2.951,11.962,5.032,15.152L16.324,101Zm.925-3.286.016.008C20.009,88.077,24.3,95.223,28.669,99.4a.8.8,0,0,0,.654.215v2.616l-5.678-.558C21.4,100.422,18.876,91.044,17.265,83.021ZM3.557,95.605l.008.024h-.8c3.987-4.243,9.307-12.449,11.683-16.268-.8,4.378-3.405,16.891-6.994,20.734l-3.126-.3V96.4A.8.8,0,0,0,3.557,95.605Zm11.173-9.761v14.993l-5.367-.55C11.707,97.009,13.533,90.828,14.729,85.844Zm14.642,19.235L4.362,102.623V101.4l3.357.327,3.987.391,6.779.662,4.881.478,6,.59v1.236Zm13.19-3.932L30.95,104.37V99.33L42.577,97.2ZM29.5,97.958c-5.582-5.534-11.165-16.284-13.071-20.064A74.29,74.29,0,0,0,32,78.22c3.987,6.587,9.57,14.355,11.627,17.146Z" transform="translate(0 -76.106)" fill="url(#linear-gradient)"/>
    </g>
  </g>
</svg>