<svg xmlns="http://www.w3.org/2000/svg" width="35.16" height="40.644" viewBox="0 0 35.16 40.644">
  <path id="בתי_כנסת" data-name="בתי כנסת" d="M67.14,10.194h-11.7L49.559,0,43.674,10.194H31.98l5.848,10.129L31.98,30.45H43.674l5.885,10.194L55.445,30.45h11.7L61.292,20.322ZM49.559,6l2.42,4.192H47.139Zm4.152,7.193,4.116,7.128-4.116,7.127h-8.3l-4.115-7.127,4.115-7.128h8.3Zm-16.534,0h4.765L39.56,17.321Zm0,14.254,2.382-4.126,2.383,4.126Zm12.382,7.193-2.42-4.192H51.98Zm12.383-7.193H57.178l2.382-4.127ZM57.178,13.195h4.765l-2.383,4.127Z" transform="translate(-31.98)" fill="#448ecd"/>
</svg>
