<svg xmlns="http://www.w3.org/2000/svg" xmlns:xlink="http://www.w3.org/1999/xlink" width="92" height="92" viewBox="0 0 92 92"><defs><style>.a{stroke:#fff;fill:url(#a);}.b{fill:#448ecd;}.c{stroke:none;}.d{fill:none;}.e{filter:url(#b);}</style><linearGradient id="a" x1="0.5" x2="0.5" y2="1" gradientUnits="objectBoundingBox"><stop offset="0" stop-color="#fff"/><stop offset="1" stop-color="#eee"/></linearGradient><filter id="b" x="0" y="0" width="92" height="92" filterUnits="userSpaceOnUse"><feOffset dy="1" input="SourceAlpha"/><feGaussianBlur stdDeviation="2" result="c"/><feFlood flood-opacity="0.161"/><feComposite operator="in" in2="c"/><feComposite in="SourceGraphic"/></filter></defs><g transform="translate(6 5)"><g class="e" transform="matrix(1, 0, 0, 1, -6, -5)"><g class="a" transform="translate(6 5)"><rect class="c" width="80" height="80" rx="11"/><rect class="d" x="0.5" y="0.5" width="79" height="79" rx="10.5"/></g></g><g transform="translate(22.128 22.112)"><g transform="translate(13.416 29.813)"><path class="b" d="M198.708,426.667h-4.472A2.239,2.239,0,0,0,192,428.9v2.981a.746.746,0,0,0,.745.745H200.2a.746.746,0,0,0,.745-.745V428.9A2.239,2.239,0,0,0,198.708,426.667Z" transform="translate(-192 -426.667)"/></g><g transform="translate(2.981 29.813)"><path class="b" d="M49.375,426.667H44.9a2.239,2.239,0,0,0-2.236,2.236v2.981a.746.746,0,0,0,.745.745h7.453a.746.746,0,0,0,.745-.745V428.9A2.239,2.239,0,0,0,49.375,426.667Z" transform="translate(-42.667 -426.667)"/></g><g transform="translate(23.85 29.813)"><path class="b" d="M348.041,426.667h-4.472a2.239,2.239,0,0,0-2.236,2.236v2.981a.746.746,0,0,0,.745.745h7.453a.746.746,0,0,0,.745-.745V428.9A2.239,2.239,0,0,0,348.041,426.667Z" transform="translate(-341.333 -426.667)"/></g><g transform="translate(13.416 22.359)"><path class="b" d="M198.708,320h-4.472A2.239,2.239,0,0,0,192,322.236v2.981a.746.746,0,0,0,.745.745H200.2a.746.746,0,0,0,.745-.745v-2.981A2.239,2.239,0,0,0,198.708,320Z" transform="translate(-192 -320)"/></g><g transform="translate(2.981 22.359)"><path class="b" d="M49.375,320H44.9a2.239,2.239,0,0,0-2.236,2.236v2.981a.746.746,0,0,0,.745.745h7.453a.746.746,0,0,0,.745-.745v-2.981A2.239,2.239,0,0,0,49.375,320Z" transform="translate(-42.667 -320)"/></g><g transform="translate(1.491)"><path class="b" d="M53.382,0h-31.3a.746.746,0,0,0-.745.745V21.286a.746.746,0,0,0,1.245.555,3.706,3.706,0,0,1,2.482-.972h2.468a.2.2,0,0,0,.03,0,.746.746,0,0,0,.745-.745.735.735,0,0,0-.112-.394,29.988,29.988,0,0,0-2.106-5.254C28.761,12.737,31.748,7,32.821,4.81A10.168,10.168,0,0,0,37.73,5.963,10.179,10.179,0,0,0,42.64,4.81C43.713,7,46.7,12.737,49.376,14.475a30.072,30.072,0,0,0-2.161,5.448.744.744,0,0,0,.717.945H50.4a3.706,3.706,0,0,1,2.482.972.746.746,0,0,0,1.245-.554V.745A.746.746,0,0,0,53.382,0Z" transform="translate(-21.333)"/></g><g transform="translate(23.85 22.359)"><path class="b" d="M348.041,320h-4.472a2.239,2.239,0,0,0-2.236,2.236v2.981a.746.746,0,0,0,.745.745h7.453a.746.746,0,0,0,.745-.745v-2.981A2.239,2.239,0,0,0,348.041,320Z" transform="translate(-341.333 -320)"/></g><g transform="translate(6.708 17.888)"><path class="b" d="M117.614,256H96.745a.745.745,0,1,0,0,1.491h20.869a.745.745,0,1,0,0-1.491Z" transform="translate(-96 -256)"/></g><g transform="translate(32.794)"><path class="b" d="M471.569,0h-1.491a.745.745,0,1,0,0,1.491h1.491a.745.745,0,1,0,0-1.491Z" transform="translate(-469.333)"/></g><path class="b" d="M2.236,0H.745a.745.745,0,1,0,0,1.491H2.236A.745.745,0,1,0,2.236,0Z"/></g></g></svg>