<svg id="מרכז_מבקרים" data-name="מרכז מבקרים" xmlns="http://www.w3.org/2000/svg" width="34.428" height="34.428" viewBox="0 0 34.428 34.428">
  <path id="Path_952" data-name="Path 952" d="M1.009,257.205a1.009,1.009,0,0,0,0,2.017H5.043a1.009,1.009,0,0,0,0-2.017H4.035v-6.333a9.118,9.118,0,0,0,6.119,2.231,8.927,8.927,0,0,0,6.052-2.231v6.333H15.2a1.009,1.009,0,0,0,0,2.017h4.035a1.009,1.009,0,0,0,0-2.017H18.223v-6.333a8.927,8.927,0,0,0,6.052,2.231,9.118,9.118,0,0,0,6.119-2.231v6.333H29.385a1.009,1.009,0,0,0,0,2.017h4.035a1.009,1.009,0,1,0,0-2.017H32.411V246.866a3.026,3.026,0,1,0-2.017,0v.927a7.164,7.164,0,0,1-6.119,3.294,6.984,6.984,0,0,1-6.052-3.291v-.93a3.026,3.026,0,1,0-2.017,0v.927a7.013,7.013,0,0,1-6.052,3.294A7.134,7.134,0,0,1,4.035,247.8v-.93a3.026,3.026,0,1,0-2.017,0v10.339Z" transform="translate(0 -224.795)" fill="#448ecd"/>
  <path id="Path_953" data-name="Path 953" d="M1.009,14.188H15.2a1.008,1.008,0,0,0,1.009-1.009V1.009A1.008,1.008,0,0,0,15.2,0H1.009A1.008,1.008,0,0,0,0,1.009V13.179A1.008,1.008,0,0,0,1.009,14.188Z" fill="#448ecd"/>
  <path id="Path_954" data-name="Path 954" d="M272.009,14.188H286.2a1.008,1.008,0,0,0,1.009-1.009V1.009A1.008,1.008,0,0,0,286.2,0H272.009A1.008,1.008,0,0,0,271,1.009V13.179A1.008,1.008,0,0,0,272.009,14.188Z" transform="translate(-252.777)" fill="#448ecd"/>
</svg>
