<svg xmlns="http://www.w3.org/2000/svg" width="22.204" height="41.657" viewBox="0 0 22.204 41.657">
  <g id="מגדל_תצפית" data-name="מגדל תצפית" transform="translate(-233.492 -281)">
    <path id="Path_927" data-name="Path 927" d="M137.511,48.654l-10.008-4.1a1.1,1.1,0,0,0-.829,0l-10.008,4.1a1.093,1.093,0,0,0-.679,1.012v8.2a1.094,1.094,0,0,0,.679,1.012l3.9,1.6V78.764h-1.631a1.069,1.069,0,0,0-1.034.8l-1.362,5.229a1.068,1.068,0,0,0,1.034,1.338H136.6a1.069,1.069,0,0,0,1.011-1.413l-1.342-5.154a1.069,1.069,0,0,0-1.034-.8H133.61V60.477l3.9-1.6a1.093,1.093,0,0,0,.679-1.012v-8.2A1.094,1.094,0,0,0,137.511,48.654Zm-19.443,7.19V51.689h7.654v4.155Zm18.041,0h-7.654V51.689h7.654Z" transform="translate(117.506 236.528)" fill="#448ecd"/>
  </g>
</svg>
