<svg xmlns="http://www.w3.org/2000/svg" width="35.185" height="35.275" viewBox="0 0 35.185 35.275">
  <g id="בית_מלאכה" data-name="בית מלאכה" transform="translate(-0.373 -0.001)">
    <path id="Path_976" data-name="Path 976" d="M139.755,16.911a2.929,2.929,0,0,1,3.391.533l1.187-1.187A8.365,8.365,0,0,0,155.36,7.018a.762.762,0,0,0-1.291-.417l-1.763,1.763a3.677,3.677,0,0,1-5.2-5.2L148.869,1.4A.762.762,0,0,0,148.452.11a8.363,8.363,0,0,0-9.189,11.157l-2.576,2.575Z" transform="translate(-119.911 0)" fill="#448ecd"/>
    <path id="Path_977" data-name="Path 977" d="M15.151,156.966,12.1,153.911,1.414,164.593a3.557,3.557,0,0,0,5.03,5.03l9.208-9.208A2.929,2.929,0,0,1,15.151,156.966Z" transform="translate(0 -135.388)" fill="#448ecd"/>
    <path id="Path_978" data-name="Path 978" d="M22.193,34.433a1.119,1.119,0,0,0-1.582,0l-.638.638L8.614,23.712l.531-.531a1.119,1.119,0,0,0-.128-1.692L4.383,18.076a1.119,1.119,0,0,0-1.455.11L.961,20.154a1.119,1.119,0,0,0-.11,1.455l3.413,4.634a1.119,1.119,0,0,0,1.692.128l.531-.531L17.846,37.2l-.683.683a1.119,1.119,0,0,0,0,1.582L27.642,49.942a3.557,3.557,0,0,0,5.03-5.03Z" transform="translate(-0.229 -15.708)" fill="#448ecd"/>
  </g>
</svg>
